<svg width="40.000000" height="40.000000" viewBox="0 0 40 40" fill="none" xmlns="http://www.w3.org/2000/svg" xmlns:xlink="http://www.w3.org/1999/xlink">
	<desc>
			Created with Pixso.
	</desc>
	<defs>
		<clipPath id="clip47_473">
			<rect id="_РЎР»РѕР№_1" rx="0.000000" width="39.000000" height="39.000000" transform="translate(0.500000 0.500000)" fill="white" fill-opacity="0"/>
		</clipPath>
	</defs>
	<rect id="_РЎР»РѕР№_1" rx="0.000000" width="39.000000" height="39.000000" transform="translate(0.500000 0.500000)" fill="#FFFFFF" fill-opacity="0"/>
	<g clip-path="url(#clip47_473)">
		<path id="Vector" d="M9.59 40C8.96 39.74 8.46 39.36 8.33 38.64C8.2 38 8.42 37.47 8.89 37.04C11.21 34.93 13.52 32.82 15.84 30.71C19.7 27.19 23.56 23.67 27.42 20.15C27.45 20.13 27.47 20.09 27.59 19.97C27.48 19.9 27.35 19.86 27.26 19.77C21.15 14.21 15.05 8.64 8.94 3.07C8.42 2.6 8.16 2.03 8.35 1.33C8.51 0.69 8.94 0.28 9.59 0.12C10.26 -0.05 10.8 0.21 11.29 0.66C12.4 1.69 13.53 2.71 14.65 3.73C20.07 8.67 25.47 13.62 30.91 18.53C31.79 19.33 31.83 20.71 30.9 21.55C24.34 27.49 17.81 33.46 11.27 39.42C11 39.65 10.67 39.8 10.36 40L9.58 40L9.59 40Z" fill="#4E5861" fill-opacity="1.000000" fill-rule="nonzero"/>
	</g>
</svg>
