<svg width="78.100006" height="76.100098" viewBox="0 0 78.1 76.1001" fill="none" xmlns="http://www.w3.org/2000/svg" xmlns:xlink="http://www.w3.org/1999/xlink">
	<desc>
			Created with Pixso.
	</desc>
	<defs>
		<filter id="filter_36_1506_dd" x="0.000000" y="0.000000" width="71.100006" height="72.041260" filterUnits="userSpaceOnUse" color-interpolation-filters="sRGB">
			<feFlood flood-opacity="0" result="BackgroundImageFix"/>
			<feBlend mode="normal" in="SourceGraphic" in2="BackgroundImageFix" result="shape"/>
			<feGaussianBlur stdDeviation="1" result="effect_layerBlur_1"/>
		</filter>
	</defs>
	<g filter="url(#filter_36_1506_dd)">
		<path id="Vector" d="M29.91 11.62C31.1 11.62 32.3 11.62 33.5 11.62C34.09 11.7 34.68 11.8 35.27 11.83C35.59 11.85 35.72 11.97 35.81 12.26C36.13 13.37 36.48 14.47 36.8 15.59C36.9 15.91 37.03 16.09 37.38 16.15C37.9 16.25 38.4 16.39 38.9 16.56C39.2 16.67 39.41 16.61 39.64 16.39C40.46 15.6 41.31 14.84 42.12 14.04C42.39 13.78 42.6 13.73 42.95 13.89C45.08 14.85 47.1 16 48.99 17.39C49.31 17.63 49.35 17.84 49.26 18.19C48.99 19.31 48.72 20.43 48.48 21.57C48.44 21.74 48.52 22.01 48.64 22.14C49.02 22.58 49.43 22.99 49.87 23.37C50.02 23.5 50.3 23.59 50.49 23.55C51.62 23.31 52.74 23.04 53.87 22.77C54.19 22.69 54.4 22.71 54.62 23.02C56.03 24.94 57.21 26.98 58.17 29.16C58.3 29.45 58.28 29.62 58.06 29.85C57.49 30.42 57.01 31.08 56.39 31.59C55.52 32.31 55.22 33.09 55.75 34.13C55.85 34.31 55.82 34.54 55.92 34.72C56.02 34.9 56.18 35.12 56.36 35.18C57.48 35.55 58.61 35.88 59.73 36.22C60 36.3 60.16 36.39 60.2 36.73C60.47 39.13 60.49 41.54 60.17 43.94C60.15 44.12 59.95 44.36 59.77 44.42C58.86 44.73 57.94 45.05 56.99 45.26C56.25 45.42 55.8 45.74 55.75 46.55C55.73 46.82 55.63 47.1 55.52 47.35C55.36 47.76 55.42 48.06 55.75 48.38C56.53 49.16 57.26 49.99 58.02 50.78C58.24 51.01 58.31 51.19 58.17 51.51C57.21 53.69 56.03 55.74 54.62 57.65C54.41 57.93 54.22 57.99 53.91 57.91C53.01 57.69 52.08 57.54 51.2 57.25C50.39 56.97 49.82 57.11 49.34 57.81C49.18 58.06 48.93 58.25 48.7 58.44C48.46 58.64 48.39 58.84 48.47 59.16C48.76 60.28 49 61.42 49.28 62.54C49.35 62.85 49.3 63.04 49.03 63.24C47.11 64.65 45.06 65.84 42.88 66.8C42.57 66.94 42.38 66.88 42.16 66.66C41.32 65.85 40.48 65.06 39.61 64.29C39.46 64.15 39.16 64.08 38.95 64.12C38.45 64.2 37.98 64.4 37.48 64.48C37.04 64.55 36.87 64.79 36.76 65.19C36.47 66.22 36.13 67.22 35.85 68.25C35.74 68.64 35.59 68.8 35.15 68.85C32.82 69.1 30.49 69.1 28.16 68.84C27.82 68.8 27.67 68.69 27.59 68.37C27.34 67.51 27 66.67 26.83 65.8C26.66 64.88 26.21 64.4 25.28 64.33C25.01 64.31 24.75 64.14 24.47 64.12C24.25 64.1 23.95 64.14 23.8 64.28C22.92 65.06 22.06 65.87 21.22 66.69C20.99 66.91 20.82 66.93 20.53 66.8C18.35 65.85 16.31 64.67 14.39 63.25C14.09 63.03 14.05 62.83 14.13 62.5C14.34 61.67 14.47 60.81 14.75 60C15.04 59.13 14.98 58.44 14.15 57.9C13.92 57.76 13.78 57.47 13.55 57.32C13.37 57.19 13.09 57.09 12.88 57.13C11.77 57.36 10.66 57.62 9.56 57.89C9.21 57.98 9 57.94 8.76 57.62C7.37 55.71 6.19 53.68 5.24 51.52C5.1 51.22 5.14 51.03 5.37 50.79C6.04 50.11 6.63 49.36 7.34 48.73C7.95 48.19 8.09 47.66 7.75 46.94C7.62 46.65 7.56 46.33 7.52 46.02C7.48 45.66 7.28 45.52 6.96 45.43C5.85 45.11 4.75 44.75 3.64 44.43C3.34 44.35 3.22 44.22 3.2 43.9C3.17 43.31 3.07 42.72 3 42.13C3 40.93 3 39.74 3 38.54C3.07 37.95 3.17 37.36 3.2 36.77C3.22 36.45 3.34 36.32 3.64 36.24C4.75 35.91 5.85 35.56 6.96 35.24C7.28 35.15 7.46 35.01 7.52 34.65C7.61 34.16 7.76 33.67 7.92 33.2C8.03 32.86 7.99 32.62 7.72 32.36C6.92 31.55 6.17 30.7 5.37 29.88C5.15 29.65 5.1 29.46 5.24 29.15C6.2 26.97 7.38 24.92 8.79 23.01C9 22.73 9.19 22.68 9.5 22.76C10.62 23.03 11.75 23.27 12.87 23.56C13.2 23.65 13.38 23.57 13.6 23.34C13.95 22.95 14.32 22.58 14.71 22.23C14.94 22.02 15.01 21.83 14.93 21.5C14.64 20.38 14.4 19.25 14.12 18.13C14.05 17.82 14.1 17.63 14.38 17.42C16.3 16.01 18.34 14.83 20.52 13.87C20.83 13.73 21.01 13.78 21.25 14.01C21.93 14.67 22.68 15.27 23.31 15.98C23.85 16.59 24.38 16.73 25.1 16.39C25.35 16.27 25.64 16.21 25.92 16.18C26.36 16.14 26.53 15.88 26.64 15.48C26.94 14.4 27.29 13.34 27.6 12.26C27.68 11.97 27.82 11.85 28.14 11.83C28.73 11.8 29.32 11.7 29.91 11.63L29.91 11.62ZM45.55 19.27C45.49 19.19 45.41 19.02 45.28 18.94C44.73 18.6 44.15 18.29 43.6 17.94C43.28 17.74 43.06 17.75 42.78 18.03C42.02 18.78 41.22 19.49 40.45 20.23C40.23 20.44 40.05 20.49 39.72 20.4C38.09 19.93 36.46 19.48 34.81 19.08C34.41 18.99 34.26 18.82 34.16 18.47C33.88 17.46 33.55 16.47 33.27 15.46C33.17 15.12 33 14.98 32.64 14.99C32.03 15.02 31.41 15.02 30.79 14.99C30.41 14.98 30.23 15.11 30.13 15.49C29.86 16.48 29.52 17.45 29.26 18.44C29.14 18.87 28.93 19 28.51 19.1C26.9 19.49 25.3 19.93 23.71 20.39C23.37 20.49 23.17 20.44 22.93 20.21C22.17 19.47 21.37 18.76 20.61 18.02C20.37 17.79 20.18 17.71 19.88 17.91C19.33 18.25 18.76 18.59 18.19 18.89C17.87 19.05 17.84 19.26 17.92 19.57C18.18 20.62 18.41 21.67 18.67 22.72C18.75 23.03 18.67 23.22 18.43 23.44C17.21 24.62 16.01 25.82 14.83 27.04C14.57 27.32 14.35 27.37 14.01 27.28C13 27.03 11.98 26.81 10.97 26.55C10.64 26.47 10.42 26.5 10.24 26.84C9.96 27.39 9.65 27.92 9.31 28.44C9.08 28.79 9.17 29.02 9.44 29.3C10.17 30.05 10.87 30.83 11.59 31.58C11.81 31.81 11.86 31.99 11.77 32.32C11.29 33.96 10.85 35.62 10.44 37.28C10.35 37.63 10.21 37.77 9.89 37.87C8.85 38.16 7.82 38.49 6.78 38.79C6.49 38.88 6.36 39.02 6.37 39.34C6.39 39.99 6.39 40.65 6.37 41.3C6.36 41.64 6.48 41.8 6.8 41.89C7.81 42.17 8.8 42.51 9.81 42.78C10.24 42.9 10.37 43.11 10.47 43.52C10.86 45.13 11.3 46.73 11.76 48.32C11.86 48.67 11.81 48.87 11.58 49.11C10.85 49.86 10.16 50.65 9.42 51.39C9.13 51.68 9.11 51.92 9.33 52.26C9.66 52.78 9.97 53.31 10.26 53.85C10.42 54.17 10.63 54.2 10.94 54.12C11.97 53.87 13.01 53.64 14.04 53.38C14.35 53.3 14.56 53.34 14.81 53.6C16 54.84 17.22 56.05 18.46 57.24C18.7 57.48 18.74 57.68 18.67 57.97C18.41 59.02 18.17 60.08 17.91 61.13C17.84 61.41 17.86 61.61 18.16 61.76C18.75 62.08 19.34 62.42 19.9 62.77C20.18 62.95 20.36 62.89 20.58 62.67C21.36 61.92 22.17 61.2 22.95 60.44C23.2 60.2 23.41 60.19 23.74 60.28C25.35 60.75 26.96 61.19 28.59 61.58C28.99 61.68 29.14 61.84 29.24 62.2C29.53 63.2 29.86 64.2 30.14 65.2C30.24 65.54 30.4 65.69 30.76 65.67C31.38 65.65 31.99 65.65 32.61 65.67C32.99 65.69 33.17 65.56 33.27 65.18C33.55 64.17 33.89 63.18 34.17 62.17C34.27 61.8 34.46 61.67 34.84 61.58C36.48 61.18 38.12 60.73 39.75 60.26C40.05 60.18 40.22 60.21 40.43 60.42C41.21 61.17 42.02 61.89 42.8 62.65C43.06 62.9 43.27 62.93 43.57 62.74C44.11 62.4 44.66 62.07 45.22 61.78C45.53 61.61 45.57 61.41 45.49 61.1C45.23 60.07 45.01 59.03 44.75 58C44.66 57.65 44.75 57.44 45.01 57.19C46.22 56.02 47.41 54.83 48.57 53.62C48.81 53.38 49 53.28 49.34 53.37C50.37 53.63 51.41 53.85 52.44 54.11C52.77 54.19 52.99 54.16 53.16 53.83C53.46 53.26 53.78 52.72 54.12 52.18C54.31 51.87 54.25 51.66 54 51.41C53.26 50.64 52.55 49.85 51.81 49.08C51.59 48.86 51.54 48.68 51.64 48.35C52.11 46.72 52.56 45.09 52.95 43.44C53.05 43.04 53.21 42.89 53.57 42.79C54.57 42.51 55.56 42.18 56.57 41.9C56.91 41.8 57.05 41.63 57.04 41.27C57.02 40.66 57.02 40.04 57.04 39.42C57.06 39.04 56.92 38.86 56.54 38.76C55.52 38.48 54.51 38.14 53.49 37.85C53.16 37.76 53.05 37.59 52.96 37.25C52.55 35.61 52.11 33.97 51.64 32.34C51.54 32 51.59 31.8 51.83 31.56C52.57 30.8 53.28 30 54.02 29.24C54.24 29 54.32 28.81 54.13 28.51C53.78 27.96 53.45 27.39 53.15 26.82C52.98 26.5 52.78 26.47 52.47 26.54C51.42 26.81 50.36 27.04 49.31 27.3C49.01 27.38 48.82 27.3 48.59 27.06C47.41 25.84 46.22 24.64 44.99 23.46C44.71 23.2 44.67 22.98 44.75 22.64C45.02 21.56 45.27 20.46 45.55 19.27L45.55 19.27Z" fill="#6AAFCC" fill-opacity="1.000000" fill-rule="nonzero"/>
		<path id="Vector" d="M29.91 11.63C29.32 11.7 28.73 11.8 28.14 11.83C27.82 11.85 27.68 11.97 27.6 12.26C27.29 13.34 26.94 14.4 26.64 15.48C26.53 15.88 26.36 16.14 25.92 16.18C25.64 16.21 25.35 16.27 25.1 16.39C24.38 16.73 23.85 16.59 23.31 15.98C22.68 15.27 21.93 14.67 21.25 14.01C21.01 13.78 20.83 13.73 20.52 13.87C18.34 14.83 16.3 16.01 14.38 17.42C14.1 17.63 14.05 17.82 14.12 18.13C14.4 19.25 14.64 20.38 14.93 21.5C15.01 21.83 14.94 22.02 14.71 22.23C14.32 22.58 13.95 22.95 13.6 23.34C13.38 23.57 13.2 23.65 12.87 23.56C11.75 23.27 10.62 23.03 9.5 22.76C9.19 22.68 9 22.73 8.79 23.01C7.38 24.92 6.2 26.97 5.24 29.15C5.1 29.46 5.15 29.65 5.37 29.88C6.17 30.7 6.92 31.55 7.72 32.36C7.99 32.62 8.03 32.86 7.92 33.2C7.76 33.67 7.61 34.16 7.52 34.65C7.46 35.01 7.28 35.15 6.96 35.24C5.85 35.56 4.75 35.91 3.64 36.24C3.34 36.32 3.22 36.45 3.2 36.77C3.17 37.36 3.07 37.95 3 38.54L3 42.13C3.07 42.72 3.17 43.31 3.2 43.9C3.22 44.22 3.34 44.35 3.64 44.43C4.75 44.75 5.85 45.11 6.96 45.43C7.28 45.52 7.48 45.66 7.52 46.02C7.56 46.33 7.62 46.65 7.75 46.94C8.09 47.66 7.95 48.19 7.34 48.73C6.63 49.36 6.04 50.11 5.37 50.79C5.14 51.03 5.1 51.22 5.24 51.52C6.19 53.68 7.37 55.71 8.76 57.62C9 57.94 9.21 57.98 9.56 57.89C10.66 57.62 11.77 57.36 12.88 57.13C13.09 57.09 13.37 57.19 13.55 57.32C13.78 57.47 13.92 57.76 14.15 57.9C14.98 58.44 15.04 59.13 14.75 60C14.47 60.81 14.34 61.67 14.13 62.5C14.05 62.83 14.09 63.03 14.39 63.25C16.31 64.67 18.35 65.85 20.53 66.8C20.82 66.93 20.99 66.91 21.22 66.69C22.06 65.87 22.92 65.06 23.8 64.28C23.95 64.14 24.25 64.1 24.47 64.12C24.75 64.14 25.01 64.31 25.28 64.33C26.21 64.4 26.66 64.88 26.83 65.8C27 66.67 27.34 67.51 27.59 68.37C27.67 68.69 27.82 68.8 28.16 68.84C30.49 69.1 32.82 69.1 35.15 68.85C35.59 68.8 35.74 68.64 35.85 68.25C36.13 67.22 36.47 66.22 36.76 65.19C36.87 64.79 37.04 64.55 37.48 64.48C37.98 64.4 38.45 64.2 38.95 64.12C39.16 64.08 39.46 64.15 39.61 64.29C40.48 65.06 41.32 65.85 42.16 66.66C42.38 66.88 42.57 66.94 42.88 66.8C45.06 65.84 47.11 64.65 49.03 63.24C49.3 63.04 49.35 62.85 49.28 62.54C49 61.42 48.76 60.28 48.47 59.16C48.39 58.84 48.46 58.64 48.7 58.44C48.93 58.25 49.18 58.06 49.34 57.81C49.82 57.11 50.39 56.97 51.2 57.25C52.08 57.54 53.01 57.69 53.91 57.91C54.22 57.99 54.41 57.93 54.62 57.65C56.03 55.74 57.21 53.69 58.17 51.51C58.31 51.19 58.24 51.01 58.02 50.78C57.26 49.99 56.53 49.16 55.75 48.38C55.42 48.06 55.36 47.76 55.52 47.35C55.63 47.1 55.73 46.82 55.75 46.55C55.8 45.74 56.25 45.42 56.99 45.26C57.94 45.05 58.86 44.73 59.77 44.42C59.95 44.36 60.15 44.12 60.17 43.94C60.49 41.54 60.47 39.13 60.2 36.73C60.16 36.39 60 36.3 59.73 36.22C58.61 35.88 57.48 35.55 56.36 35.18C56.18 35.12 56.02 34.9 55.92 34.72C55.82 34.54 55.85 34.31 55.75 34.13C55.22 33.09 55.52 32.31 56.39 31.59C57.01 31.08 57.49 30.42 58.06 29.85C58.28 29.62 58.3 29.45 58.17 29.16C57.21 26.98 56.03 24.94 54.62 23.02C54.4 22.71 54.19 22.69 53.87 22.77C52.74 23.04 51.62 23.31 50.49 23.55C50.3 23.59 50.02 23.5 49.87 23.37C49.43 22.99 49.02 22.58 48.64 22.14C48.52 22.01 48.44 21.74 48.48 21.57C48.72 20.43 48.99 19.31 49.26 18.19C49.35 17.84 49.31 17.63 48.99 17.39C47.1 16 45.08 14.85 42.95 13.89C42.6 13.73 42.39 13.78 42.12 14.04C41.31 14.84 40.46 15.6 39.64 16.39C39.41 16.61 39.2 16.67 38.9 16.56C38.4 16.39 37.9 16.25 37.38 16.15C37.03 16.09 36.9 15.91 36.8 15.59C36.48 14.47 36.13 13.37 35.81 12.26C35.72 11.97 35.59 11.85 35.27 11.83C34.68 11.8 34.09 11.7 33.5 11.62L29.91 11.62L29.91 11.63ZM29.95 12.19Q29.79 12.22 29.47 12.26Q28.61 12.37 28.17 12.4Q28.16 12.4 28.16 12.41Q28.15 12.41 28.15 12.42Q28.01 12.91 27.71 13.87Q27.36 15.04 27.19 15.63Q27.02 16.24 26.63 16.52Q26.35 16.71 25.97 16.75Q25.59 16.79 25.35 16.9Q24.69 17.21 24.11 17.11Q23.45 16.99 22.89 16.36Q22.51 15.94 21.65 15.15Q21.11 14.67 20.85 14.41Q20.82 14.38 20.79 14.38Q20.77 14.38 20.75 14.39Q18.44 15.41 16.34 16.76Q15.51 17.3 14.72 17.88Q14.69 17.9 14.68 17.92Q14.67 17.95 14.68 17.99Q14.78 18.42 14.98 19.27Q15.3 20.67 15.48 21.36Q15.58 21.74 15.48 22.06Q15.39 22.38 15.09 22.65Q14.52 23.16 14.02 23.72Q13.74 24.02 13.41 24.12Q13.09 24.21 12.73 24.11Q12.07 23.94 10.74 23.63Q9.82 23.42 9.36 23.31Q9.32 23.3 9.29 23.31Q9.27 23.32 9.25 23.35Q8.86 23.87 8.5 24.42Q6.92 26.76 5.76 29.38Q5.75 29.4 5.75 29.41Q5.75 29.45 5.78 29.48Q6.15 29.86 6.86 30.62Q7.7 31.52 8.13 31.96Q8.43 32.27 8.51 32.63Q8.59 32.98 8.46 33.38Q8.18 34.2 8.08 34.76Q8.02 35.1 7.83 35.34Q7.58 35.65 7.12 35.79Q6.58 35.94 5.5 36.27Q4.37 36.62 3.79 36.78Q3.77 36.79 3.77 36.8L3.77 36.8Q3.74 37.24 3.63 38.1Q3.59 38.41 3.57 38.58L3.57 42.09Q3.59 42.26 3.63 42.58Q3.74 43.43 3.77 43.86L3.77 43.86Q3.77 43.88 3.79 43.88Q4.35 44.04 5.46 44.38Q6.57 44.72 7.12 44.88Q7.62 45.02 7.86 45.36Q8.04 45.6 8.09 45.95Q8.14 46.42 8.27 46.7Q8.58 47.36 8.47 47.94Q8.35 48.59 7.72 49.15Q7.31 49.52 6.54 50.37Q6.04 50.92 5.77 51.19Q5.76 51.21 5.75 51.23Q5.74 51.26 5.76 51.29Q6.61 53.21 7.69 54.99Q8.4 56.17 9.22 57.29Q9.24 57.31 9.27 57.33Q9.33 57.36 9.42 57.34Q11.46 56.84 12.77 56.57Q12.84 56.56 12.91 56.55Q13.37 56.52 13.87 56.84Q14.05 56.96 14.28 57.24Q14.41 57.4 14.46 57.42Q15.07 57.82 15.31 58.37Q15.64 59.13 15.29 60.18Q15.12 60.67 14.9 61.7Q14.77 62.33 14.68 62.64Q14.67 62.71 14.69 62.76Q14.7 62.78 14.73 62.8Q15.66 63.48 16.64 64.1Q18.61 65.34 20.76 66.28Q20.79 66.3 20.81 66.29Q20.82 66.28 20.82 66.28Q22.28 64.86 23.42 63.86Q23.45 63.82 23.49 63.8Q23.87 63.51 24.51 63.55Q24.73 63.56 25.07 63.69Q25.26 63.76 25.32 63.76Q26.12 63.82 26.63 64.24Q27.21 64.72 27.39 65.69Q27.49 66.2 27.83 67.25Q28.04 67.89 28.13 68.22Q28.14 68.23 28.14 68.23Q28.16 68.26 28.22 68.27Q30.46 68.52 32.69 68.45Q33.89 68.41 35.09 68.28Q35.17 68.27 35.22 68.23Q35.28 68.18 35.3 68.1Q35.45 67.57 35.77 66.52Q36.07 65.53 36.21 65.04Q36.36 64.48 36.73 64.2Q37 63.98 37.39 63.92Q37.6 63.88 38.06 63.75Q38.57 63.6 38.85 63.56Q39.25 63.49 39.58 63.61Q39.8 63.69 39.99 63.86Q41.04 64.79 42.55 66.25Q42.6 66.29 42.64 66.29Q42.65 66.29 42.65 66.28Q44.54 65.44 46.3 64.38Q47.53 63.64 48.69 62.78Q48.71 62.77 48.72 62.75Q48.73 62.72 48.72 62.68Q48.61 62.22 48.4 61.31Q48.09 59.97 47.92 59.31Q47.82 58.9 47.93 58.57Q48.03 58.25 48.34 58Q48.36 57.98 48.4 57.95Q48.77 57.65 48.87 57.49Q49.29 56.87 49.86 56.66Q50.52 56.42 51.38 56.71Q51.92 56.89 53.06 57.14Q53.72 57.28 54.05 57.36Q54.07 57.37 54.09 57.36Q54.13 57.36 54.16 57.32Q54.2 57.26 54.24 57.2Q56.24 54.46 57.65 51.28Q57.65 51.28 57.65 51.27Q57.66 51.23 57.61 51.18Q57.3 50.86 56.7 50.21Q55.81 49.25 55.35 48.79Q54.98 48.42 54.89 48Q54.81 47.6 55 47.14Q55.17 46.72 55.18 46.51Q55.22 45.91 55.52 45.49Q55.94 44.91 56.87 44.7Q57.77 44.5 59.57 43.88L59.59 43.88Q59.61 43.87 59.61 43.87Q60.05 40.49 59.64 36.79Q59.63 36.78 59.57 36.76Q59.41 36.71 59.08 36.62Q57.15 36.04 56.19 35.72Q55.75 35.58 55.42 35Q55.32 34.82 55.27 34.51Q55.25 34.39 55.25 34.39Q54.83 33.57 54.94 32.84Q55.08 31.93 56.03 31.15Q56.38 30.86 57.02 30.14Q57.43 29.67 57.65 29.44L57.66 29.44Q57.67 29.43 57.65 29.39Q57.06 28.04 56.34 26.75Q55.36 24.99 54.16 23.35Q54.15 23.34 54.14 23.33Q54.09 23.3 54 23.32Q51.95 23.83 50.6 24.11Q50.35 24.16 50.11 24.11Q49.79 24.05 49.5 23.8Q48.83 23.22 48.21 22.52Q47.99 22.27 47.92 21.98Q47.86 21.73 47.92 21.45Q48.24 19.96 48.71 18.05Q48.73 17.96 48.7 17.9Q48.68 17.87 48.65 17.85Q45.92 15.85 42.71 14.41Q42.67 14.38 42.62 14.39Q42.57 14.4 42.52 14.45Q42.07 14.89 41.15 15.74Q40.4 16.45 40.03 16.8Q39.74 17.09 39.4 17.16Q39.07 17.23 38.71 17.1Q37.93 16.83 37.28 16.71Q36.94 16.65 36.7 16.46Q36.39 16.21 36.25 15.74Q36.09 15.18 35.75 14.04Q35.42 12.96 35.26 12.42Q35.25 12.41 35.24 12.4Q35.24 12.4 35.23 12.4Q34.8 12.37 33.94 12.26Q33.63 12.22 33.46 12.19L29.95 12.19ZM45.98 18.88Q45.79 18.59 45.59 18.46L45.59 18.46Q45.31 18.28 44.74 17.96Q44.18 17.63 43.9 17.46Q43.49 17.2 43.12 17.24Q42.73 17.28 42.38 17.63Q41.96 18.04 41.08 18.85Q40.4 19.49 40.06 19.82Q40.04 19.83 40.02 19.85Q39.96 19.87 39.88 19.85Q37.09 19.04 34.94 18.53Q34.84 18.5 34.77 18.43Q34.73 18.38 34.71 18.31Q34.57 17.8 34.26 16.8Q33.95 15.8 33.81 15.31Q33.68 14.83 33.36 14.61Q33.07 14.41 32.62 14.42Q31.69 14.46 30.82 14.42Q30.34 14.4 30.04 14.62Q29.72 14.85 29.58 15.34Q29.46 15.8 29.17 16.71Q28.85 17.76 28.71 18.29Q28.7 18.32 28.68 18.35Q28.61 18.49 28.38 18.55Q26.2 19.07 23.55 19.85Q23.46 19.87 23.4 19.84Q23.36 19.83 23.33 19.8Q22.94 19.42 22.14 18.68Q21.38 17.97 21 17.61Q20.63 17.25 20.24 17.23Q19.92 17.21 19.58 17.42Q18.7 17.98 17.92 18.38Q17.56 18.57 17.41 18.87Q17.24 19.21 17.36 19.7L17.76 21.37L18.12 22.86Q18.12 22.86 18.12 22.87Q18.13 22.95 18.04 23.03Q16.01 24.99 14.42 26.65Q14.36 26.71 14.29 26.73Q14.22 26.75 14.15 26.73Q13.64 26.6 12.62 26.36Q11.61 26.13 11.1 26Q10.59 25.87 10.23 26.06Q9.93 26.21 9.73 26.58Q9.34 27.35 8.83 28.12Q8.59 28.5 8.61 28.86Q8.63 29.29 9.03 29.7Q9.42 30.1 10.19 30.92Q10.85 31.63 11.18 31.98Q11.21 32 11.22 32.03Q11.24 32.09 11.22 32.16Q10.46 34.79 9.88 37.14Q9.86 37.24 9.8 37.29Q9.77 37.31 9.73 37.32Q9.18 37.48 8.09 37.81Q7.11 38.11 6.62 38.25Q6.18 38.38 5.97 38.67Q5.78 38.94 5.8 39.36Q5.83 40.28 5.8 41.28Q5.78 41.73 5.99 42.01Q6.2 42.31 6.65 42.44Q7.08 42.56 7.94 42.82Q9.08 43.18 9.66 43.33Q9.69 43.34 9.72 43.35Q9.86 43.42 9.91 43.66Q10.45 45.88 11.21 48.48Q11.24 48.58 11.21 48.65Q11.19 48.68 11.17 48.71Q10.84 49.05 10.21 49.73Q9.42 50.58 9.02 50.99Q8.66 51.35 8.62 51.74Q8.57 52.13 8.84 52.56Q9.38 53.41 9.75 54.12Q9.94 54.48 10.24 54.63Q10.59 54.8 11.07 54.68L12.82 54.26L14.17 53.93Q14.25 53.92 14.31 53.94Q14.36 53.95 14.4 54Q16.12 55.78 18.06 57.65Q18.1 57.69 18.11 57.73Q18.13 57.78 18.11 57.83L17.57 60.11L17.36 60.99Q17.24 61.47 17.41 61.81Q17.55 62.09 17.9 62.27Q18.68 62.68 19.6 63.26Q19.94 63.47 20.26 63.44Q20.63 63.42 20.98 63.08Q21.34 62.74 22.07 62.06Q22.92 61.26 23.35 60.85Q23.35 60.85 23.35 60.85Q23.42 60.79 23.58 60.83Q26.49 61.67 28.46 62.14Q28.57 62.17 28.64 62.24Q28.68 62.29 28.7 62.35Q28.84 62.87 29.15 63.89Q29.45 64.87 29.59 65.36Q29.73 65.84 30.04 66.06Q30.34 66.26 30.79 66.24Q31.25 66.22 31.72 66.22Q32.16 66.22 32.59 66.24Q33.07 66.26 33.37 66.04Q33.69 65.81 33.82 65.33Q33.96 64.82 34.28 63.79Q34.58 62.82 34.71 62.33Q34.72 62.31 34.73 62.29Q34.78 62.18 34.97 62.13Q37.14 61.6 39.9 60.81Q39.98 60.79 40.02 60.82Q40.03 60.82 40.04 60.83Q40.4 61.18 41.13 61.86Q41.99 62.65 42.4 63.05Q42.75 63.39 43.12 63.43Q43.49 63.47 43.88 63.22Q44.79 62.65 45.48 62.28Q45.85 62.09 46 61.79Q46.16 61.45 46.04 60.96Q45.92 60.49 45.7 59.53Q45.44 58.41 45.3 57.86Q45.29 57.84 45.29 57.83Q45.28 57.72 45.41 57.6Q47.15 55.92 48.98 54.02Q49.1 53.9 49.19 53.92Q49.19 53.92 49.2 53.92Q49.75 54.06 50.85 54.32Q51.82 54.54 52.3 54.66Q52.81 54.79 53.17 54.61Q53.48 54.46 53.67 54.09Q54.06 53.33 54.6 52.48Q54.83 52.12 54.8 51.78Q54.77 51.38 54.41 51.01Q54.02 50.61 53.25 49.78Q52.57 49.05 52.22 48.69Q52.19 48.66 52.18 48.63Q52.16 48.57 52.18 48.51Q53 45.68 53.51 43.57Q53.53 43.47 53.59 43.41Q53.64 43.36 53.72 43.34Q54.22 43.2 55.2 42.9Q56.22 42.59 56.73 42.44Q57.2 42.31 57.42 42Q57.63 41.71 57.61 41.25Q57.59 40.65 57.59 40.05Q57.6 39.75 57.61 39.44Q57.63 38.97 57.41 38.66Q57.18 38.34 56.7 38.21Q56.14 38.06 55.03 37.72Q54.11 37.43 53.64 37.3Q53.64 37.3 53.64 37.3Q53.55 37.27 53.51 37.11Q52.91 34.66 52.19 32.18Q52.16 32.09 52.19 32.02Q52.21 31.99 52.23 31.96Q52.61 31.56 53.35 30.77Q54.07 30 54.43 29.63Q54.78 29.26 54.81 28.88Q54.83 28.55 54.61 28.21Q54.06 27.33 53.65 26.55Q53.46 26.19 53.17 26.04Q52.82 25.87 52.33 25.99L51.36 26.23L49.18 26.75Q49.17 26.75 49.16 26.75Q49.09 26.76 49 26.67Q47.09 24.68 45.39 23.05Q45.32 22.99 45.3 22.92Q45.29 22.85 45.3 22.78Q45.49 22.03 45.85 20.49Q46.02 19.77 46.1 19.4L45.69 19.3L46 18.91L45.98 18.88ZM45.48 19.55C45.23 20.64 45 21.64 44.75 22.64C44.67 22.98 44.71 23.2 44.99 23.46C46.22 24.64 47.41 25.84 48.59 27.06C48.82 27.3 49.01 27.38 49.31 27.3C50.36 27.04 51.42 26.81 52.47 26.54C52.78 26.47 52.98 26.5 53.15 26.82C53.45 27.39 53.78 27.96 54.13 28.51C54.32 28.81 54.24 29 54.02 29.24C53.28 30 52.57 30.8 51.83 31.56C51.59 31.8 51.54 32 51.64 32.34C52.11 33.97 52.55 35.61 52.96 37.25C53.05 37.59 53.16 37.76 53.49 37.85C54.51 38.14 55.52 38.48 56.54 38.76C56.92 38.86 57.06 39.04 57.04 39.42C57.02 40.04 57.02 40.66 57.04 41.27C57.05 41.63 56.91 41.8 56.57 41.9C55.56 42.18 54.57 42.51 53.57 42.79C53.21 42.89 53.05 43.04 52.95 43.44C52.56 45.09 52.11 46.72 51.64 48.35C51.54 48.68 51.59 48.86 51.81 49.08C52.55 49.85 53.26 50.64 54 51.41C54.25 51.66 54.31 51.87 54.12 52.18C53.78 52.72 53.46 53.26 53.16 53.83C52.99 54.16 52.77 54.19 52.44 54.11C51.41 53.85 50.37 53.63 49.34 53.37C49 53.28 48.81 53.38 48.57 53.62C47.41 54.83 46.22 56.02 45.01 57.19C44.75 57.44 44.66 57.65 44.75 58C45.01 59.03 45.23 60.07 45.49 61.1C45.57 61.41 45.53 61.61 45.22 61.78C44.66 62.07 44.11 62.4 43.57 62.74C43.27 62.93 43.06 62.9 42.8 62.65C42.02 61.89 41.21 61.17 40.43 60.42C40.22 60.21 40.05 60.18 39.75 60.26C38.12 60.73 36.48 61.18 34.84 61.58C34.46 61.67 34.27 61.8 34.17 62.17C33.89 63.18 33.55 64.17 33.27 65.18C33.17 65.56 32.99 65.69 32.61 65.67C31.99 65.65 31.38 65.65 30.76 65.67C30.4 65.69 30.24 65.54 30.14 65.2C29.86 64.2 29.53 63.2 29.24 62.2C29.14 61.84 28.99 61.68 28.59 61.58C26.96 61.19 25.35 60.75 23.74 60.28C23.41 60.19 23.2 60.2 22.95 60.44C22.17 61.2 21.36 61.92 20.58 62.67C20.36 62.89 20.18 62.95 19.9 62.77C19.34 62.42 18.75 62.08 18.16 61.76C17.86 61.61 17.84 61.41 17.91 61.13C18.17 60.08 18.41 59.02 18.67 57.97C18.74 57.68 18.7 57.48 18.46 57.24C17.22 56.05 16 54.84 14.81 53.6C14.56 53.34 14.35 53.3 14.04 53.38C13.01 53.64 11.97 53.87 10.94 54.12C10.63 54.2 10.42 54.17 10.26 53.85C9.97 53.31 9.66 52.78 9.33 52.26C9.11 51.92 9.13 51.68 9.42 51.39C10.16 50.65 10.85 49.86 11.58 49.11C11.81 48.87 11.86 48.67 11.76 48.32C11.3 46.73 10.86 45.13 10.47 43.52C10.37 43.11 10.24 42.9 9.81 42.78C8.8 42.51 7.81 42.17 6.8 41.89C6.48 41.8 6.36 41.64 6.37 41.3C6.39 40.65 6.39 39.99 6.37 39.34C6.36 39.02 6.49 38.88 6.78 38.79C7.82 38.49 8.85 38.16 9.89 37.87C10.21 37.77 10.35 37.63 10.44 37.28C10.85 35.62 11.29 33.96 11.77 32.32C11.86 31.99 11.81 31.81 11.59 31.58C10.87 30.83 10.17 30.05 9.44 29.3C9.17 29.02 9.08 28.79 9.31 28.44C9.65 27.92 9.96 27.39 10.24 26.84C10.42 26.5 10.64 26.47 10.97 26.55C11.98 26.81 13 27.03 14.01 27.28C14.35 27.37 14.57 27.32 14.83 27.04C16.01 25.82 17.21 24.62 18.43 23.44C18.67 23.22 18.75 23.03 18.67 22.72C18.41 21.67 18.18 20.62 17.92 19.57C17.84 19.26 17.87 19.05 18.19 18.89C18.76 18.59 19.33 18.25 19.88 17.91C20.18 17.71 20.37 17.79 20.61 18.02C21.37 18.76 22.17 19.47 22.93 20.21C23.17 20.44 23.37 20.49 23.71 20.39C25.3 19.93 26.9 19.49 28.51 19.1C28.93 19 29.14 18.87 29.26 18.44C29.52 17.45 29.86 16.48 30.13 15.49C30.23 15.11 30.41 14.98 30.79 14.99C31.41 15.02 32.03 15.02 32.64 14.99C33 14.98 33.17 15.12 33.27 15.46C33.55 16.47 33.88 17.46 34.16 18.47C34.26 18.82 34.41 18.99 34.81 19.08C36.46 19.48 38.09 19.93 39.72 20.4C40.05 20.49 40.23 20.44 40.45 20.23C41.22 19.49 42.02 18.78 42.78 18.03C43.06 17.75 43.28 17.74 43.6 17.94C44.08 18.24 44.58 18.52 45.07 18.81C45.14 18.85 45.21 18.9 45.28 18.94C45.41 19.02 45.49 19.19 45.55 19.27L45.55 19.27L45.55 19.27C45.55 19.27 45.55 19.27 45.55 19.27C45.53 19.36 45.5 19.46 45.48 19.55Z" fill="#FFFFFF" fill-opacity="1.000000" fill-rule="evenodd"/>
		<circle id="Ellipse 30" cx="31.705872" cy="40.335205" r="11.705882" stroke="#6AAFCC" stroke-opacity="1.000000" stroke-width="2.000000"/>
		<circle id="Ellipse 31" cx="31.705872" cy="40.335449" r="7.941176" stroke="#6AAFCC" stroke-opacity="1.000000" stroke-width="2.000000"/>
		<path id="Vector 32" d="M30.76 13.04L35.41 8.16C35.78 7.77 36.39 7.75 36.79 8.1L38.57 9.66C38.86 9.92 39.28 9.98 39.64 9.82L42.57 8.48C42.92 8.32 43.15 7.96 43.15 7.57L43.15 5.1C43.15 4.54 43.6 4.1 44.15 4.1L50.35 4.1C50.9 4.1 51.35 4.54 51.35 5.1L51.35 7.57C51.35 7.96 51.58 8.32 51.93 8.48L54.86 9.82C55.22 9.98 55.64 9.92 55.93 9.66L57.72 8.09C58.12 7.74 58.72 7.76 59.09 8.13L63.27 12.34C63.68 12.74 63.66 13.41 63.23 13.79L61.25 15.55C60.91 15.86 60.82 16.37 61.04 16.78L62.61 19.68C62.79 20 63.13 20.2 63.49 20.2L66 20.2C66.55 20.2 67 20.65 67 21.2L67 27.35C67 27.93 66.49 28.39 65.9 28.34L63.58 28.13C63.17 28.09 62.78 28.31 62.59 28.68L61.03 31.83C60.81 32.26 60.93 32.77 61.3 33.06L63.13 34.49C63.6 34.86 63.64 35.56 63.22 35.98L58.43 40.8" stroke="#6AAFCC" stroke-opacity="1.000000" stroke-width="2.200000"/>
	</g>
	<path id="Vector" d="M37.59 15.1C38.86 15.1 40.13 15.1 41.4 15.1C42.03 15.17 42.66 15.28 43.29 15.31C43.63 15.33 43.77 15.46 43.86 15.77C44.2 16.95 44.57 18.12 44.92 19.3C45.01 19.64 45.16 19.84 45.53 19.91C46.08 20.01 46.62 20.16 47.14 20.34C47.47 20.45 47.68 20.4 47.93 20.16C48.8 19.32 49.7 18.51 50.56 17.66C50.85 17.38 51.08 17.33 51.44 17.5C53.71 18.52 55.86 19.75 57.86 21.22C58.2 21.47 58.25 21.7 58.16 22.07C57.86 23.26 57.58 24.46 57.32 25.66C57.28 25.85 57.36 26.13 57.49 26.27C57.9 26.73 58.33 27.17 58.8 27.57C58.96 27.71 59.25 27.81 59.45 27.76C60.66 27.51 61.85 27.23 63.05 26.93C63.39 26.85 63.61 26.88 63.85 27.2C65.35 29.24 66.6 31.41 67.62 33.73C67.75 34.03 67.73 34.22 67.5 34.46C66.9 35.06 66.38 35.76 65.73 36.3C64.81 37.07 64.49 37.9 65.05 39C65.15 39.19 65.12 39.45 65.22 39.63C65.34 39.83 65.5 40.06 65.7 40.12C66.88 40.52 68.08 40.87 69.28 41.22C69.56 41.31 69.74 41.41 69.78 41.77C70.06 44.32 70.08 46.88 69.75 49.43C69.72 49.62 69.51 49.87 69.32 49.94C68.35 50.27 67.37 50.6 66.37 50.83C65.57 51.01 65.1 51.35 65.04 52.2C65.03 52.49 64.92 52.78 64.81 53.06C64.64 53.49 64.69 53.8 65.04 54.15C65.88 54.98 66.65 55.86 67.46 56.7C67.7 56.94 67.77 57.13 67.62 57.48C66.6 59.79 65.34 61.96 63.84 64C63.63 64.29 63.43 64.36 63.09 64.28C62.13 64.04 61.14 63.88 60.21 63.57C59.35 63.28 58.74 63.43 58.24 64.17C58.06 64.43 57.8 64.63 57.56 64.83C57.3 65.05 57.23 65.26 57.32 65.61C57.63 66.8 57.88 68 58.17 69.19C58.25 69.52 58.2 69.73 57.9 69.94C55.86 71.44 53.69 72.7 51.38 73.72C51.04 73.87 50.85 73.8 50.6 73.57C49.72 72.71 48.82 71.87 47.9 71.05C47.74 70.9 47.42 70.83 47.19 70.87C46.67 70.96 46.16 71.17 45.64 71.26C45.17 71.33 44.99 71.58 44.87 72.01C44.56 73.1 44.21 74.17 43.91 75.26C43.79 75.67 43.62 75.85 43.16 75.9C40.68 76.17 38.21 76.16 35.73 75.88C35.37 75.84 35.22 75.72 35.12 75.39C34.87 74.47 34.5 73.58 34.32 72.65C34.14 71.68 33.66 71.17 32.67 71.09C32.38 71.07 32.1 70.89 31.81 70.87C31.58 70.85 31.26 70.9 31.1 71.04C30.16 71.87 29.26 72.73 28.36 73.6C28.12 73.83 27.93 73.85 27.63 73.72C25.31 72.71 23.14 71.45 21.1 69.95C20.78 69.72 20.74 69.5 20.83 69.15C21.05 68.27 21.19 67.36 21.48 66.5C21.79 65.57 21.73 64.83 20.84 64.27C20.6 64.11 20.45 63.8 20.21 63.64C20.01 63.51 19.72 63.4 19.5 63.45C18.32 63.69 17.14 63.97 15.97 64.26C15.6 64.35 15.37 64.31 15.12 63.97C13.64 61.94 12.39 59.78 11.38 57.49C11.23 57.16 11.27 56.96 11.52 56.71C12.23 55.99 12.86 55.19 13.61 54.52C14.26 53.94 14.41 53.38 14.05 52.61C13.91 52.31 13.84 51.97 13.8 51.64C13.76 51.25 13.55 51.11 13.21 51.01C12.03 50.67 10.86 50.29 9.68 49.95C9.37 49.86 9.23 49.73 9.21 49.39C9.18 48.76 9.07 48.14 9 47.51C9 46.24 9 44.96 9 43.69C9.07 43.07 9.18 42.44 9.21 41.81C9.23 41.47 9.37 41.33 9.68 41.24C10.86 40.9 12.03 40.53 13.21 40.19C13.54 40.09 13.74 39.94 13.81 39.56C13.9 39.04 14.06 38.52 14.23 38.02C14.35 37.66 14.3 37.41 14.02 37.13C13.17 36.26 12.36 35.36 11.52 34.49C11.28 34.24 11.23 34.05 11.38 33.71C12.4 31.4 13.65 29.23 15.15 27.19C15.37 26.89 15.58 26.84 15.9 26.92C17.1 27.21 18.3 27.47 19.49 27.78C19.83 27.87 20.03 27.79 20.26 27.54C20.63 27.13 21.03 26.74 21.44 26.36C21.69 26.14 21.76 25.93 21.67 25.59C21.36 24.4 21.11 23.2 20.82 22C20.74 21.68 20.79 21.48 21.09 21.26C23.13 19.76 25.3 18.5 27.61 17.48C27.95 17.33 28.14 17.38 28.39 17.63C29.11 18.33 29.91 18.97 30.58 19.72C31.15 20.37 31.72 20.52 32.48 20.16C32.75 20.03 33.05 19.97 33.35 19.94C33.82 19.89 34 19.62 34.12 19.19C34.44 18.05 34.81 16.92 35.14 15.77C35.23 15.46 35.37 15.34 35.71 15.31C36.34 15.28 36.96 15.17 37.59 15.1L37.59 15.1ZM54.21 23.22C54.15 23.13 54.06 22.96 53.93 22.87C53.34 22.5 52.73 22.17 52.14 21.81C51.8 21.59 51.56 21.61 51.26 21.9C50.46 22.7 49.61 23.45 48.8 24.23C48.56 24.47 48.36 24.51 48.02 24.42C46.29 23.92 44.55 23.44 42.8 23.02C42.38 22.92 42.22 22.74 42.11 22.36C41.81 21.3 41.46 20.24 41.16 19.17C41.05 18.81 40.88 18.66 40.49 18.68C39.84 18.7 39.18 18.7 38.53 18.68C38.12 18.66 37.94 18.8 37.83 19.2C37.54 20.25 37.18 21.28 36.9 22.34C36.78 22.79 36.55 22.93 36.11 23.04C34.4 23.45 32.7 23.92 31.01 24.41C30.64 24.52 30.43 24.46 30.18 24.22C29.36 23.43 28.52 22.67 27.71 21.89C27.46 21.65 27.26 21.57 26.94 21.77C26.35 22.14 25.75 22.49 25.14 22.81C24.8 22.99 24.77 23.2 24.85 23.53C25.12 24.65 25.37 25.77 25.65 26.89C25.73 27.21 25.65 27.41 25.4 27.65C24.1 28.91 22.82 30.18 21.57 31.48C21.29 31.77 21.06 31.82 20.7 31.73C19.62 31.46 18.54 31.23 17.46 30.96C17.11 30.87 16.88 30.9 16.69 31.26C16.39 31.84 16.06 32.41 15.7 32.96C15.46 33.33 15.55 33.58 15.84 33.88C16.62 34.67 17.36 35.5 18.13 36.3C18.36 36.54 18.42 36.74 18.32 37.08C17.81 38.83 17.34 40.59 16.9 42.36C16.81 42.73 16.66 42.88 16.32 42.98C15.22 43.29 14.12 43.64 13.02 43.96C12.71 44.05 12.57 44.2 12.58 44.54C12.6 45.24 12.6 45.93 12.58 46.63C12.57 46.98 12.7 47.15 13.04 47.25C14.11 47.55 15.16 47.92 16.23 48.2C16.69 48.32 16.83 48.55 16.93 48.99C17.35 50.7 17.82 52.4 18.31 54.09C18.41 54.45 18.36 54.66 18.11 54.92C17.34 55.72 16.61 56.56 15.82 57.34C15.51 57.66 15.5 57.91 15.72 58.27C16.07 58.82 16.41 59.38 16.71 59.96C16.89 60.3 17.1 60.33 17.43 60.25C18.53 59.98 19.63 59.73 20.73 59.46C21.06 59.38 21.28 59.42 21.55 59.7C22.82 61.01 24.11 62.3 25.42 63.56C25.68 63.81 25.72 64.02 25.65 64.34C25.37 65.45 25.12 66.57 24.84 67.69C24.77 68 24.79 68.2 25.11 68.37C25.74 68.7 26.36 69.06 26.96 69.44C27.26 69.62 27.45 69.56 27.68 69.33C28.51 68.53 29.37 67.77 30.19 66.96C30.46 66.7 30.69 66.7 31.03 66.8C32.74 67.29 34.46 67.76 36.19 68.18C36.61 68.28 36.78 68.45 36.88 68.83C37.19 69.9 37.53 70.95 37.84 72.02C37.94 72.39 38.11 72.54 38.5 72.52C39.15 72.49 39.81 72.49 40.46 72.52C40.87 72.54 41.06 72.4 41.17 72C41.46 70.93 41.82 69.87 42.11 68.8C42.22 68.41 42.42 68.27 42.83 68.17C44.57 67.75 46.31 67.27 48.04 66.77C48.36 66.68 48.54 66.72 48.77 66.94C49.6 67.74 50.46 68.5 51.29 69.31C51.56 69.58 51.79 69.6 52.11 69.4C52.68 69.05 53.26 68.7 53.86 68.38C54.19 68.21 54.23 68 54.15 67.66C53.87 66.57 53.63 65.46 53.35 64.37C53.26 63.99 53.36 63.78 53.64 63.5C54.93 62.27 56.18 61 57.42 59.72C57.68 59.46 57.88 59.35 58.23 59.44C59.33 59.72 60.43 59.96 61.53 60.24C61.88 60.33 62.11 60.29 62.3 59.93C62.61 59.34 62.95 58.76 63.31 58.19C63.52 57.85 63.45 57.63 63.19 57.37C62.4 56.55 61.65 55.71 60.86 54.89C60.63 54.66 60.58 54.46 60.68 54.12C61.18 52.39 61.65 50.65 62.07 48.9C62.18 48.47 62.35 48.32 62.73 48.21C63.8 47.91 64.85 47.56 65.92 47.26C66.28 47.15 66.43 46.98 66.42 46.59C66.39 45.94 66.39 45.28 66.42 44.63C66.43 44.22 66.29 44.03 65.89 43.92C64.8 43.63 63.73 43.27 62.64 42.96C62.3 42.86 62.17 42.68 62.08 42.32C61.65 40.58 61.18 38.84 60.68 37.11C60.58 36.74 60.63 36.53 60.88 36.28C61.66 35.46 62.42 34.62 63.2 33.81C63.45 33.56 63.52 33.35 63.32 33.04C62.95 32.45 62.6 31.85 62.28 31.24C62.11 30.9 61.89 30.87 61.56 30.95C60.44 31.22 59.32 31.48 58.2 31.75C57.88 31.83 57.68 31.75 57.44 31.5C56.19 30.2 54.92 28.92 53.62 27.67C53.32 27.39 53.27 27.16 53.36 26.8C53.65 25.65 53.91 24.49 54.21 23.21L54.21 23.22Z" fill="#2B2B2B" fill-opacity="1.000000" fill-rule="nonzero"/>
	<path id="Vector" d="M37.59 15.1C36.96 15.17 36.34 15.28 35.71 15.31C35.37 15.34 35.23 15.46 35.14 15.77C34.81 16.92 34.44 18.05 34.12 19.19C34 19.62 33.82 19.89 33.35 19.94C33.05 19.97 32.75 20.03 32.48 20.16C31.72 20.52 31.15 20.37 30.58 19.72C29.91 18.97 29.11 18.33 28.39 17.63C28.14 17.38 27.95 17.33 27.61 17.48C25.3 18.5 23.13 19.76 21.09 21.26C20.79 21.48 20.74 21.68 20.82 22C21.11 23.2 21.36 24.4 21.67 25.59C21.76 25.93 21.69 26.14 21.44 26.36C21.03 26.74 20.63 27.13 20.26 27.54C20.03 27.79 19.83 27.87 19.49 27.78C18.3 27.47 17.1 27.21 15.9 26.92C15.58 26.84 15.37 26.89 15.15 27.19C13.65 29.23 12.4 31.4 11.38 33.71C11.23 34.05 11.28 34.24 11.52 34.49C12.36 35.36 13.17 36.26 14.02 37.13C14.3 37.41 14.35 37.66 14.23 38.02C14.06 38.52 13.9 39.04 13.81 39.56C13.74 39.94 13.54 40.09 13.21 40.19C12.03 40.53 10.86 40.9 9.68 41.24C9.37 41.33 9.23 41.47 9.21 41.81C9.18 42.44 9.07 43.07 9 43.69L9 47.51C9.07 48.14 9.18 48.76 9.21 49.39C9.23 49.73 9.37 49.86 9.68 49.95C10.86 50.29 12.03 50.67 13.21 51.01C13.55 51.11 13.76 51.25 13.8 51.64C13.84 51.97 13.91 52.31 14.05 52.61C14.41 53.38 14.26 53.94 13.61 54.52C12.86 55.19 12.23 55.99 11.52 56.71C11.27 56.96 11.23 57.16 11.38 57.49C12.39 59.78 13.64 61.94 15.12 63.97C15.37 64.31 15.6 64.35 15.97 64.26C17.14 63.97 18.32 63.69 19.5 63.45C19.72 63.4 20.01 63.51 20.21 63.64C20.45 63.8 20.6 64.11 20.84 64.27C21.73 64.83 21.79 65.57 21.48 66.5C21.19 67.36 21.05 68.27 20.83 69.15C20.74 69.5 20.78 69.72 21.1 69.95C23.14 71.45 25.31 72.71 27.63 73.72C27.93 73.85 28.12 73.83 28.36 73.6C29.26 72.73 30.16 71.87 31.1 71.04C31.26 70.9 31.58 70.85 31.81 70.87C32.1 70.89 32.38 71.07 32.67 71.09C33.66 71.17 34.14 71.68 34.32 72.65C34.5 73.58 34.87 74.47 35.12 75.39C35.22 75.72 35.37 75.84 35.73 75.88C38.21 76.16 40.68 76.17 43.16 75.9C43.62 75.85 43.79 75.67 43.91 75.26C44.21 74.17 44.56 73.1 44.87 72.01C44.99 71.58 45.17 71.33 45.64 71.26C46.16 71.17 46.67 70.96 47.19 70.87C47.42 70.83 47.74 70.9 47.9 71.05C48.82 71.87 49.72 72.71 50.6 73.57C50.85 73.8 51.04 73.87 51.38 73.72C53.69 72.7 55.86 71.44 57.9 69.94C58.2 69.73 58.25 69.52 58.17 69.19C57.88 68 57.63 66.8 57.32 65.61C57.23 65.26 57.3 65.05 57.56 64.83C57.8 64.63 58.06 64.43 58.24 64.17C58.74 63.43 59.35 63.28 60.21 63.57C61.14 63.88 62.13 64.04 63.09 64.28C63.43 64.36 63.63 64.29 63.84 64C65.34 61.96 66.6 59.79 67.62 57.48C67.77 57.13 67.7 56.94 67.46 56.7C66.65 55.86 65.88 54.98 65.04 54.15C64.69 53.8 64.64 53.49 64.81 53.06C64.92 52.78 65.03 52.49 65.04 52.2C65.1 51.35 65.57 51.01 66.37 50.83C67.37 50.6 68.35 50.27 69.32 49.94C69.51 49.87 69.72 49.62 69.75 49.43C70.08 46.88 70.06 44.32 69.78 41.77C69.74 41.41 69.56 41.31 69.28 41.22C68.08 40.87 66.88 40.52 65.7 40.12C65.5 40.06 65.34 39.83 65.22 39.63C65.12 39.45 65.15 39.19 65.05 39C64.49 37.9 64.81 37.07 65.73 36.3C66.38 35.76 66.9 35.06 67.5 34.46C67.73 34.22 67.75 34.03 67.62 33.73C66.6 31.41 65.35 29.24 63.85 27.2C63.61 26.88 63.39 26.85 63.05 26.93C61.85 27.23 60.66 27.51 59.45 27.76C59.25 27.81 58.96 27.71 58.8 27.57C58.33 27.17 57.9 26.73 57.49 26.27C57.36 26.13 57.28 25.85 57.32 25.66C57.58 24.46 57.86 23.26 58.16 22.07C58.25 21.7 58.2 21.47 57.86 21.22C55.86 19.75 53.71 18.52 51.44 17.5C51.08 17.33 50.85 17.38 50.56 17.66C49.7 18.51 48.8 19.32 47.93 20.16C47.68 20.4 47.47 20.45 47.14 20.34C46.62 20.16 46.08 20.01 45.53 19.91C45.16 19.84 45.01 19.64 44.92 19.3C44.57 18.12 44.2 16.95 43.86 15.77C43.77 15.46 43.63 15.33 43.29 15.31C42.66 15.28 42.03 15.17 41.4 15.1L37.59 15.1L37.59 15.1ZM37.64 15.67Q37.46 15.69 37.11 15.73Q36.21 15.86 35.74 15.88Q35.72 15.89 35.71 15.9Q35.69 15.91 35.68 15.93Q35.54 16.45 35.23 17.47Q34.84 18.72 34.67 19.35Q34.49 19.98 34.08 20.27Q33.8 20.47 33.41 20.51Q32.99 20.55 32.73 20.67Q32.05 20.99 31.44 20.89Q30.75 20.77 30.15 20.1Q29.76 19.65 28.84 18.82Q28.27 18.31 27.99 18.03Q27.95 17.99 27.91 17.99Q27.88 17.99 27.84 18Q25.39 19.09 23.16 20.52Q22.27 21.09 21.43 21.71Q21.39 21.74 21.38 21.78Q21.36 21.82 21.37 21.87Q21.48 22.32 21.69 23.23Q22.04 24.71 22.23 25.45Q22.33 25.84 22.23 26.17Q22.13 26.51 21.82 26.79Q21.22 27.33 20.68 27.92Q20.39 28.24 20.05 28.34Q19.72 28.43 19.34 28.33Q18.64 28.15 17.23 27.82Q16.25 27.6 15.77 27.48Q15.71 27.46 15.67 27.48Q15.64 27.5 15.61 27.53Q15.2 28.09 14.81 28.67Q13.13 31.16 11.9 33.95Q11.88 33.97 11.89 34Q11.89 34.05 11.93 34.09Q12.32 34.49 13.07 35.3Q13.97 36.26 14.43 36.73Q14.74 37.05 14.82 37.42Q14.91 37.78 14.77 38.2Q14.47 39.07 14.37 39.67Q14.3 40.02 14.1 40.27Q13.85 40.59 13.36 40.73Q12.79 40.9 11.65 41.25Q10.44 41.62 9.83 41.79Q9.8 41.8 9.79 41.82Q9.78 41.83 9.78 41.84Q9.76 42.31 9.63 43.22Q9.59 43.55 9.57 43.73L9.57 47.47Q9.59 47.65 9.63 47.99Q9.76 48.89 9.78 49.35Q9.78 49.36 9.79 49.37Q9.8 49.39 9.83 49.4Q10.43 49.58 11.61 49.94Q12.78 50.29 13.37 50.46Q13.89 50.61 14.14 50.96Q14.33 51.21 14.37 51.57Q14.43 52.08 14.57 52.37Q14.89 53.06 14.78 53.67Q14.65 54.36 13.99 54.94Q13.55 55.34 12.74 56.24Q12.2 56.83 11.92 57.11Q11.9 57.14 11.89 57.17Q11.88 57.21 11.9 57.26Q12.8 59.3 13.95 61.18Q14.71 62.44 15.58 63.63Q15.61 63.67 15.65 63.69Q15.72 63.73 15.83 63.7Q18 63.17 19.39 62.89Q19.46 62.87 19.53 62.87Q20.01 62.83 20.53 63.17Q20.72 63.29 20.96 63.59Q21.1 63.75 21.15 63.79Q21.79 64.2 22.05 64.78Q22.39 65.57 22.02 66.68Q21.85 67.19 21.61 68.29Q21.47 68.96 21.38 69.29Q21.36 69.38 21.39 69.44Q21.41 69.47 21.44 69.49Q22.43 70.22 23.47 70.88Q25.57 72.19 27.86 73.2Q27.9 73.22 27.94 73.21Q27.95 73.2 27.96 73.19Q29.51 71.69 30.72 70.62Q30.75 70.59 30.79 70.56Q31.19 70.26 31.85 70.3Q32.08 70.32 32.44 70.44Q32.65 70.52 32.72 70.52Q33.55 70.59 34.08 71.03Q34.69 71.53 34.88 72.55Q34.99 73.1 35.35 74.2Q35.57 74.88 35.67 75.23Q35.68 75.25 35.69 75.27Q35.72 75.31 35.79 75.32Q38.18 75.58 40.56 75.51Q41.83 75.47 43.1 75.33Q43.2 75.32 43.26 75.27Q43.33 75.21 43.36 75.11Q43.51 74.54 43.85 73.43Q44.17 72.38 44.32 71.86Q44.48 71.28 44.86 70.98Q45.14 70.76 45.55 70.69Q45.77 70.66 46.26 70.52Q46.8 70.36 47.1 70.31Q47.51 70.24 47.85 70.36Q48.08 70.45 48.28 70.62Q49.39 71.61 51 73.16Q51.06 73.21 51.11 73.21Q51.13 73.21 51.15 73.2Q53.16 72.31 55.03 71.18Q56.33 70.39 57.57 69.48Q57.6 69.46 57.61 69.42Q57.63 69.38 57.62 69.33Q57.5 68.84 57.28 67.87Q56.95 66.45 56.77 65.75Q56.66 65.33 56.77 64.99Q56.88 64.66 57.19 64.4Q57.22 64.38 57.26 64.34Q57.65 64.02 57.77 63.85Q58.21 63.2 58.8 62.98Q59.49 62.72 60.39 63.03Q60.96 63.22 62.18 63.49Q62.88 63.64 63.24 63.73Q63.27 63.73 63.3 63.73Q63.34 63.72 63.38 63.66Q63.43 63.6 63.47 63.54Q65.6 60.62 67.1 57.24Q67.11 57.23 67.11 57.22Q67.11 57.16 67.05 57.1Q66.72 56.76 66.09 56.07Q65.13 55.04 64.64 54.56Q64.26 54.18 64.17 53.74Q64.09 53.32 64.28 52.85Q64.46 52.39 64.48 52.17Q64.51 51.53 64.83 51.1Q65.27 50.49 66.24 50.27Q67.21 50.06 69.11 49.41L69.14 49.4Q69.17 49.38 69.18 49.36Q69.18 49.36 69.18 49.36Q69.65 45.77 69.21 41.83Q69.21 41.8 69.12 41.77Q68.94 41.72 68.6 41.62Q66.54 41 65.52 40.67Q65.08 40.52 64.73 39.91Q64.63 39.73 64.57 39.4Q64.55 39.28 64.54 39.26Q64.11 38.41 64.23 37.65Q64.37 36.69 65.37 35.87Q65.74 35.56 66.42 34.79Q66.86 34.29 67.1 34.05Q67.1 34.05 67.1 34.04Q67.12 34.01 67.1 33.96Q66.47 32.52 65.71 31.16Q64.67 29.28 63.39 27.54Q63.37 27.51 63.35 27.5Q63.29 27.46 63.18 27.49Q61.01 28.02 59.57 28.32Q59.31 28.38 59.06 28.33Q58.73 28.26 58.43 28Q57.72 27.39 57.06 26.65Q56.83 26.39 56.76 26.09Q56.7 25.83 56.77 25.54Q57.1 23.96 57.6 21.93Q57.63 21.83 57.59 21.75Q57.57 21.71 57.53 21.68Q54.62 19.55 51.21 18.02Q51.15 17.99 51.09 18Q51.03 18.01 50.96 18.07Q50.49 18.54 49.51 19.45Q48.71 20.19 48.32 20.57Q48.02 20.87 47.66 20.94Q47.33 21.01 46.95 20.88Q46.12 20.59 45.43 20.47Q45.08 20.4 44.83 20.21Q44.51 19.95 44.37 19.46Q44.19 18.86 43.83 17.66Q43.48 16.51 43.31 15.93Q43.3 15.9 43.28 15.89Q43.27 15.88 43.25 15.88Q42.79 15.86 41.88 15.73Q41.55 15.69 41.37 15.67L37.64 15.67ZM54.63 22.82Q54.44 22.52 54.23 22.39L54.23 22.39Q53.93 22.2 53.33 21.85Q52.73 21.5 52.44 21.32Q52.02 21.05 51.63 21.1Q51.23 21.14 50.86 21.5Q50.41 21.94 49.49 22.8Q48.76 23.48 48.4 23.82Q48.37 23.85 48.34 23.86Q48.27 23.9 48.17 23.87Q45.21 23.01 42.93 22.46Q42.81 22.43 42.74 22.36Q42.68 22.3 42.66 22.21Q42.5 21.67 42.18 20.6Q41.86 19.55 41.71 19.02Q41.57 18.53 41.24 18.3Q40.94 18.09 40.47 18.11Q39.48 18.14 38.55 18.11Q38.06 18.08 37.75 18.31Q37.42 18.54 37.28 19.05Q37.14 19.54 36.84 20.51Q36.5 21.62 36.35 22.19Q36.34 22.23 36.32 22.26Q36.23 22.42 35.97 22.48Q33.66 23.05 30.85 23.86Q30.74 23.89 30.66 23.86Q30.61 23.85 30.57 23.81Q30.16 23.4 29.31 22.62Q28.5 21.86 28.1 21.48Q27.72 21.11 27.32 21.08Q26.98 21.07 26.63 21.29Q25.7 21.88 24.87 22.31Q24.5 22.5 24.35 22.81Q24.17 23.16 24.29 23.67L24.68 25.26L25.1 27.02Q25.1 27.03 25.1 27.05Q25.11 27.14 25 27.24Q22.85 29.32 21.16 31.08Q21.09 31.16 21.01 31.18Q20.93 31.2 20.84 31.18Q20.3 31.04 19.21 30.79Q18.14 30.54 17.6 30.4Q17.07 30.27 16.69 30.46Q16.38 30.62 16.19 31Q15.76 31.82 15.23 32.65Q14.98 33.03 15 33.4Q15.02 33.85 15.44 34.27Q15.85 34.7 16.66 35.57Q17.36 36.33 17.72 36.7Q17.75 36.73 17.77 36.77Q17.79 36.84 17.77 36.92Q16.96 39.71 16.35 42.22Q16.32 42.33 16.25 42.39Q16.21 42.41 16.16 42.43Q15.58 42.6 14.42 42.95Q13.38 43.27 12.86 43.42Q12.4 43.55 12.19 43.85Q11.99 44.13 12.01 44.56Q12.04 45.55 12.01 46.61Q11.99 47.07 12.2 47.36Q12.42 47.67 12.89 47.8Q13.34 47.93 14.26 48.21Q15.47 48.59 16.09 48.75Q16.12 48.76 16.16 48.78Q16.32 48.86 16.38 49.12Q16.95 51.48 17.76 54.25Q17.79 54.36 17.76 54.45Q17.74 54.49 17.71 54.52Q17.36 54.88 16.68 55.61Q15.85 56.51 15.42 56.94Q15.05 57.31 15 57.72Q14.96 58.13 15.24 58.57Q15.81 59.48 16.21 60.23Q16.4 60.6 16.71 60.76Q17.07 60.93 17.57 60.8L19.04 60.45L19.21 60.41L19.39 60.37L20.86 60.01Q20.95 59.99 21.02 60.02Q21.09 60.04 21.14 60.09Q22.96 61.99 25.03 63.97Q25.07 64.02 25.09 64.07Q25.11 64.13 25.09 64.2L24.52 66.62L24.29 67.56Q24.17 68.05 24.34 68.4Q24.49 68.69 24.84 68.87Q25.68 69.31 26.66 69.92Q27.01 70.14 27.34 70.12Q27.72 70.09 28.08 69.74Q28.46 69.38 29.24 68.65Q30.15 67.81 30.59 67.37Q30.6 67.37 30.6 67.36Q30.69 67.29 30.88 67.34Q33.97 68.23 36.06 68.73Q36.19 68.76 36.26 68.85Q36.31 68.9 36.34 68.98Q36.49 69.53 36.82 70.62Q37.14 71.66 37.29 72.18Q37.43 72.67 37.76 72.9Q38.06 73.11 38.52 73.09Q39.02 73.07 39.52 73.07Q39.98 73.07 40.44 73.09Q40.93 73.11 41.25 72.88Q41.58 72.65 41.72 72.15Q41.87 71.6 42.2 70.51Q42.52 69.48 42.66 68.96Q42.67 68.93 42.68 68.91Q42.75 68.78 42.96 68.73Q45.27 68.16 48.2 67.32Q48.29 67.29 48.35 67.33Q48.36 67.34 48.38 67.35Q48.76 67.72 49.54 68.44Q50.45 69.28 50.89 69.71Q51.25 70.06 51.63 70.1Q52.01 70.14 52.41 69.89Q53.38 69.28 54.12 68.89Q54.5 68.69 54.65 68.38Q54.82 68.03 54.7 67.53Q54.57 67.02 54.33 66Q54.06 64.82 53.91 64.23Q53.9 64.2 53.9 64.18Q53.9 64.05 54.03 63.92Q55.89 62.13 57.83 60.12Q57.97 59.98 58.08 59.99Q58.08 59.99 58.09 60Q58.68 60.15 59.85 60.42Q60.88 60.66 61.39 60.79Q61.92 60.92 62.29 60.74Q62.61 60.58 62.81 60.2Q63.22 59.39 63.79 58.49Q64.03 58.12 64 57.76Q63.98 57.35 63.6 56.97Q63.18 56.54 62.37 55.66Q61.64 54.88 61.27 54.5Q61.24 54.46 61.22 54.42Q61.2 54.35 61.22 54.28Q62.09 51.27 62.63 49.03Q62.66 48.92 62.73 48.85Q62.79 48.79 62.88 48.76Q63.41 48.61 64.46 48.29Q65.53 47.96 66.07 47.81Q66.56 47.67 66.79 47.35Q67 47.04 66.99 46.57Q66.96 45.94 66.97 45.31Q66.97 44.98 66.99 44.65Q67.01 44.16 66.78 43.84Q66.55 43.51 66.04 43.38Q65.45 43.21 64.27 42.85Q63.29 42.55 62.8 42.41Q62.79 42.41 62.78 42.41Q62.68 42.36 62.64 42.19Q61.99 39.58 61.23 36.95Q61.2 36.84 61.23 36.76Q61.25 36.71 61.29 36.67Q61.69 36.26 62.48 35.41Q63.23 34.6 63.61 34.2Q63.98 33.82 64.01 33.42Q64.03 33.08 63.81 32.73Q63.22 31.8 62.79 30.97Q62.59 30.6 62.29 30.45Q61.93 30.27 61.42 30.39L60.38 30.65L58.07 31.2Q58.06 31.2 58.05 31.2Q57.95 31.21 57.85 31.1Q55.82 29 54.01 27.26Q53.94 27.19 53.91 27.11Q53.89 27.03 53.91 26.94Q54.11 26.14 54.49 24.51Q54.67 23.74 54.76 23.34L54.35 23.25L54.66 22.86Q54.66 22.86 54.63 22.82ZM54.14 23.5C53.87 24.66 53.63 25.73 53.36 26.8C53.27 27.16 53.32 27.39 53.62 27.67C54.92 28.92 56.19 30.2 57.44 31.5C57.68 31.75 57.88 31.83 58.2 31.75C59.32 31.48 60.44 31.22 61.56 30.95C61.89 30.87 62.11 30.9 62.28 31.24C62.6 31.85 62.95 32.45 63.32 33.04C63.52 33.35 63.45 33.56 63.2 33.81C62.42 34.62 61.66 35.46 60.88 36.28C60.63 36.53 60.58 36.74 60.68 37.11C61.18 38.84 61.65 40.58 62.08 42.32C62.17 42.68 62.3 42.86 62.64 42.96C63.73 43.27 64.8 43.63 65.89 43.92C66.29 44.03 66.43 44.22 66.42 44.63C66.39 45.28 66.39 45.94 66.42 46.59C66.43 46.98 66.28 47.15 65.92 47.26C64.85 47.56 63.8 47.91 62.73 48.21C62.35 48.32 62.18 48.47 62.07 48.9C61.65 50.65 61.18 52.39 60.68 54.12C60.58 54.46 60.63 54.66 60.86 54.89C61.65 55.71 62.4 56.55 63.19 57.37C63.45 57.63 63.52 57.85 63.31 58.19C62.95 58.76 62.61 59.34 62.3 59.93C62.11 60.29 61.88 60.33 61.53 60.24C60.43 59.96 59.33 59.72 58.23 59.44C57.88 59.35 57.68 59.46 57.42 59.72C56.18 61 54.93 62.27 53.64 63.5C53.36 63.78 53.26 63.99 53.35 64.37C53.63 65.46 53.87 66.57 54.15 67.66C54.23 68 54.19 68.21 53.86 68.38C53.26 68.7 52.68 69.05 52.11 69.4C51.79 69.6 51.56 69.58 51.29 69.31C50.46 68.5 49.6 67.74 48.77 66.94C48.54 66.72 48.36 66.68 48.04 66.77C46.31 67.27 44.57 67.75 42.83 68.17C42.42 68.27 42.22 68.41 42.11 68.8C41.82 69.87 41.46 70.93 41.17 72C41.06 72.4 40.87 72.54 40.46 72.52C39.81 72.49 39.15 72.49 38.5 72.52C38.11 72.54 37.94 72.39 37.84 72.02C37.53 70.95 37.19 69.9 36.88 68.83C36.78 68.45 36.61 68.28 36.19 68.18C34.46 67.76 32.74 67.29 31.03 66.8C30.69 66.7 30.46 66.7 30.19 66.96C29.37 67.77 28.51 68.53 27.68 69.33C27.45 69.56 27.26 69.62 26.96 69.44C26.36 69.06 25.74 68.7 25.11 68.37C24.79 68.2 24.77 68 24.84 67.69C25.12 66.57 25.37 65.45 25.65 64.34C25.72 64.02 25.68 63.81 25.42 63.56C24.11 62.3 22.82 61.01 21.55 59.7C21.28 59.42 21.06 59.38 20.73 59.46C19.63 59.73 18.53 59.98 17.43 60.25C17.1 60.33 16.89 60.3 16.71 59.96C16.41 59.38 16.07 58.82 15.72 58.27C15.5 57.91 15.51 57.66 15.82 57.34C16.61 56.56 17.34 55.72 18.11 54.92C18.36 54.66 18.41 54.45 18.31 54.09C17.82 52.4 17.35 50.7 16.93 48.99C16.83 48.55 16.69 48.32 16.23 48.2C15.16 47.92 14.11 47.55 13.04 47.25C12.7 47.15 12.57 46.98 12.58 46.63C12.6 45.93 12.6 45.24 12.58 44.54C12.57 44.2 12.71 44.05 13.02 43.96C14.12 43.64 15.22 43.29 16.32 42.98C16.66 42.88 16.81 42.73 16.9 42.36C17.34 40.59 17.81 38.83 18.32 37.08C18.42 36.74 18.36 36.54 18.13 36.3C17.36 35.5 16.62 34.67 15.84 33.88C15.55 33.58 15.46 33.33 15.7 32.96C16.06 32.41 16.39 31.84 16.69 31.26C16.88 30.9 17.11 30.87 17.46 30.96C18.54 31.23 19.62 31.46 20.7 31.73C21.06 31.82 21.29 31.77 21.57 31.48C22.82 30.18 24.1 28.91 25.4 27.65C25.65 27.41 25.73 27.21 25.65 26.89C25.37 25.77 25.12 24.65 24.85 23.53C24.77 23.2 24.8 22.99 25.14 22.81C25.75 22.49 26.35 22.14 26.94 21.77C27.26 21.57 27.46 21.65 27.71 21.89C28.52 22.67 29.36 23.43 30.18 24.22C30.43 24.46 30.64 24.52 31.01 24.41C32.7 23.92 34.4 23.45 36.11 23.04C36.55 22.93 36.78 22.79 36.9 22.34C37.18 21.28 37.54 20.25 37.83 19.2C37.94 18.8 38.12 18.66 38.53 18.68C39.18 18.7 39.84 18.7 40.49 18.68C40.88 18.66 41.05 18.81 41.16 19.17C41.46 20.24 41.81 21.3 42.11 22.36C42.22 22.74 42.38 22.92 42.8 23.02C44.55 23.44 46.29 23.92 48.02 24.42C48.36 24.51 48.56 24.47 48.8 24.23C49.61 23.45 50.46 22.7 51.26 21.9C51.56 21.61 51.8 21.59 52.14 21.81C52.66 22.13 53.2 22.43 53.73 22.75C53.8 22.79 53.86 22.83 53.93 22.87C54.06 22.96 54.15 23.13 54.21 23.21L54.21 23.22L54.21 23.21C54.21 23.22 54.21 23.22 54.21 23.22C54.18 23.31 54.16 23.41 54.14 23.5Z" fill="#FFFFFF" fill-opacity="1.000000" fill-rule="evenodd"/>
	<circle id="Ellipse 28" cx="39.500000" cy="45.600098" r="12.500000" stroke="#2B2B2B" stroke-opacity="1.000000" stroke-width="2.000000"/>
	<circle id="Ellipse 29" cx="39.500000" cy="45.600098" r="8.500000" stroke="#2B2B2B" stroke-opacity="1.000000" stroke-width="2.000000"/>
	<path id="Vector 31" d="M38.5 16.6L43.48 11.37C43.85 10.98 44.46 10.96 44.86 11.31L46.82 13.03C47.12 13.29 47.54 13.36 47.9 13.19L51.08 11.74C51.43 11.58 51.66 11.22 51.66 10.83L51.66 8.1C51.66 7.54 52.11 7.1 52.66 7.1L59.37 7.1C59.92 7.1 60.37 7.54 60.37 8.1L60.37 10.83C60.37 11.22 60.6 11.58 60.95 11.74L64.13 13.19C64.49 13.36 64.91 13.29 65.21 13.03L67.18 11.3C67.58 10.95 68.18 10.97 68.55 11.34L73.08 15.9C73.49 16.3 73.47 16.97 73.04 17.35L70.86 19.3C70.51 19.61 70.42 20.12 70.64 20.53L72.36 23.68C72.53 24.01 72.87 24.21 73.24 24.21L76 24.21C76.55 24.21 77 24.66 77 25.21L77 31.87C77 32.46 76.49 32.92 75.9 32.86L73.32 32.63C72.91 32.59 72.52 32.81 72.34 33.18L70.63 36.61C70.42 37.03 70.53 37.55 70.91 37.84L72.94 39.43C73.41 39.8 73.46 40.5 73.03 40.92L67.89 46.1" stroke="#2B2B2B" stroke-opacity="1.000000" stroke-width="2.200000"/>
</svg>
