<svg width="80.000000" height="80.000000" viewBox="0 0 80 80" fill="none" xmlns="http://www.w3.org/2000/svg" xmlns:xlink="http://www.w3.org/1999/xlink">
	<desc>
			Created with Pixso.
	</desc>
	<defs>
		<filter id="filter_47_250_dd" x="0.000000" y="-0.100098" width="71.100006" height="72.041504" filterUnits="userSpaceOnUse" color-interpolation-filters="sRGB">
			<feFlood flood-opacity="0" result="BackgroundImageFix"/>
			<feBlend mode="normal" in="SourceGraphic" in2="BackgroundImageFix" result="shape"/>
			<feGaussianBlur stdDeviation="1" result="effect_layerBlur_1"/>
		</filter>
		<clipPath id="clip47_248">
			<rect id="Frame 1000002133" rx="0.000000" width="79.000000" height="79.000000" transform="translate(0.500000 0.500000)" fill="white" fill-opacity="0"/>
		</clipPath>
	</defs>
	<g clip-path="url(#clip47_248)">
		<g filter="url(#filter_47_250_dd)">
			<path id="Vector" d="M29.91 11.52C31.1 11.52 32.3 11.52 33.5 11.52C34.09 11.6 34.68 11.7 35.27 11.73C35.59 11.75 35.72 11.87 35.81 12.16C36.13 13.27 36.48 14.37 36.8 15.49C36.9 15.81 37.03 15.99 37.38 16.05C37.9 16.15 38.4 16.29 38.9 16.46C39.2 16.57 39.41 16.51 39.64 16.29C40.46 15.5 41.31 14.74 42.12 13.94C42.39 13.68 42.6 13.63 42.95 13.79C45.08 14.75 47.1 15.9 48.99 17.29C49.31 17.52 49.35 17.74 49.26 18.09C48.99 19.21 48.72 20.33 48.48 21.47C48.44 21.64 48.52 21.91 48.64 22.04C49.02 22.48 49.43 22.89 49.87 23.27C50.02 23.4 50.3 23.49 50.49 23.45C51.62 23.21 52.74 22.94 53.87 22.67C54.19 22.59 54.4 22.61 54.62 22.92C56.03 24.83 57.21 26.88 58.17 29.06C58.3 29.35 58.28 29.52 58.06 29.75C57.49 30.32 57.01 30.98 56.39 31.49C55.52 32.21 55.22 32.99 55.75 34.03C55.85 34.21 55.82 34.44 55.92 34.62C56.02 34.8 56.18 35.02 56.36 35.08C57.48 35.45 58.61 35.78 59.73 36.12C60 36.2 60.16 36.29 60.2 36.63C60.47 39.03 60.49 41.44 60.17 43.84C60.15 44.02 59.95 44.26 59.77 44.32C58.86 44.63 57.94 44.95 56.99 45.16C56.25 45.32 55.8 45.64 55.75 46.45C55.73 46.72 55.63 47 55.52 47.25C55.36 47.66 55.42 47.96 55.75 48.28C56.53 49.06 57.26 49.89 58.02 50.68C58.24 50.91 58.31 51.09 58.17 51.41C57.21 53.59 56.03 55.64 54.62 57.55C54.41 57.83 54.22 57.89 53.91 57.81C53.01 57.59 52.08 57.44 51.2 57.15C50.39 56.87 49.82 57.01 49.34 57.71C49.18 57.96 48.93 58.15 48.7 58.34C48.46 58.54 48.39 58.74 48.47 59.06C48.76 60.18 49 61.32 49.28 62.44C49.35 62.75 49.3 62.94 49.03 63.14C47.11 64.55 45.06 65.74 42.88 66.7C42.57 66.84 42.38 66.78 42.16 66.56C41.32 65.75 40.48 64.96 39.61 64.19C39.46 64.05 39.16 63.98 38.95 64.02C38.45 64.1 37.98 64.3 37.48 64.38C37.04 64.45 36.87 64.69 36.76 65.09C36.47 66.12 36.13 67.12 35.85 68.15C35.74 68.54 35.59 68.7 35.15 68.75C32.82 69 30.49 69 28.16 68.74C27.82 68.7 27.67 68.58 27.59 68.27C27.34 67.41 27 66.57 26.83 65.69C26.66 64.78 26.21 64.3 25.28 64.23C25.01 64.21 24.75 64.04 24.47 64.02C24.25 64 23.95 64.04 23.8 64.18C22.92 64.96 22.06 65.77 21.22 66.59C20.99 66.81 20.82 66.83 20.53 66.7C18.35 65.75 16.31 64.57 14.39 63.15C14.09 62.93 14.05 62.73 14.13 62.4C14.34 61.57 14.47 60.71 14.75 59.9C15.04 59.03 14.98 58.34 14.15 57.8C13.92 57.66 13.78 57.37 13.55 57.22C13.37 57.09 13.09 56.99 12.88 57.03C11.77 57.26 10.66 57.52 9.56 57.79C9.21 57.88 9 57.84 8.76 57.52C7.37 55.61 6.19 53.58 5.24 51.42C5.1 51.12 5.14 50.93 5.37 50.69C6.04 50.01 6.63 49.26 7.34 48.63C7.95 48.09 8.09 47.56 7.75 46.84C7.62 46.55 7.56 46.23 7.52 45.92C7.48 45.56 7.28 45.42 6.96 45.33C5.85 45 4.75 44.65 3.64 44.33C3.34 44.25 3.22 44.12 3.2 43.8C3.17 43.21 3.07 42.62 3 42.03C3 40.83 3 39.64 3 38.44C3.07 37.85 3.17 37.26 3.2 36.67C3.22 36.35 3.34 36.22 3.64 36.14C4.75 35.81 5.85 35.46 6.96 35.14C7.28 35.05 7.46 34.91 7.52 34.55C7.61 34.06 7.76 33.57 7.92 33.1C8.03 32.76 7.99 32.52 7.72 32.26C6.92 31.45 6.17 30.6 5.37 29.78C5.15 29.55 5.1 29.36 5.24 29.05C6.2 26.87 7.38 24.82 8.79 22.91C9 22.63 9.19 22.58 9.5 22.66C10.62 22.93 11.75 23.17 12.87 23.46C13.2 23.54 13.38 23.47 13.6 23.24C13.95 22.85 14.32 22.48 14.71 22.13C14.94 21.92 15.01 21.73 14.93 21.4C14.64 20.28 14.4 19.15 14.12 18.03C14.05 17.72 14.1 17.53 14.38 17.32C16.3 15.91 18.34 14.73 20.52 13.77C20.83 13.63 21.01 13.68 21.25 13.91C21.93 14.57 22.68 15.17 23.31 15.88C23.85 16.49 24.38 16.63 25.1 16.29C25.35 16.17 25.64 16.11 25.92 16.08C26.36 16.04 26.53 15.78 26.64 15.38C26.94 14.3 27.29 13.24 27.6 12.16C27.68 11.87 27.82 11.75 28.14 11.73C28.73 11.7 29.32 11.6 29.91 11.53L29.91 11.52ZM45.55 19.17C45.49 19.09 45.41 18.92 45.28 18.84C44.73 18.5 44.15 18.19 43.6 17.84C43.28 17.64 43.06 17.65 42.78 17.93C42.02 18.68 41.22 19.39 40.45 20.13C40.23 20.34 40.05 20.39 39.72 20.3C38.09 19.83 36.46 19.38 34.81 18.98C34.41 18.89 34.26 18.72 34.16 18.37C33.88 17.36 33.55 16.37 33.27 15.36C33.17 15.02 33 14.88 32.64 14.89C32.03 14.92 31.41 14.92 30.79 14.89C30.41 14.88 30.23 15.01 30.13 15.39C29.86 16.38 29.52 17.35 29.26 18.34C29.14 18.77 28.93 18.9 28.51 19C26.9 19.39 25.3 19.83 23.71 20.29C23.37 20.39 23.17 20.34 22.93 20.11C22.17 19.37 21.37 18.66 20.61 17.92C20.37 17.69 20.18 17.61 19.88 17.81C19.33 18.15 18.76 18.49 18.19 18.79C17.87 18.95 17.84 19.16 17.92 19.47C18.18 20.52 18.41 21.57 18.67 22.62C18.75 22.93 18.67 23.12 18.43 23.34C17.21 24.52 16.01 25.72 14.83 26.94C14.57 27.22 14.35 27.27 14.01 27.18C13 26.93 11.98 26.71 10.97 26.45C10.64 26.37 10.42 26.4 10.24 26.74C9.96 27.29 9.65 27.82 9.31 28.33C9.08 28.69 9.17 28.92 9.44 29.2C10.17 29.95 10.87 30.73 11.59 31.48C11.81 31.71 11.86 31.89 11.77 32.22C11.29 33.86 10.85 35.52 10.44 37.18C10.35 37.53 10.21 37.67 9.89 37.77C8.85 38.06 7.82 38.39 6.78 38.69C6.49 38.78 6.36 38.92 6.37 39.24C6.39 39.89 6.39 40.55 6.37 41.2C6.36 41.54 6.48 41.7 6.8 41.79C7.81 42.07 8.8 42.41 9.81 42.68C10.24 42.79 10.37 43.01 10.47 43.42C10.86 45.03 11.3 46.63 11.76 48.23C11.86 48.57 11.81 48.77 11.58 49.01C10.85 49.76 10.16 50.55 9.42 51.29C9.13 51.58 9.11 51.82 9.33 52.16C9.66 52.68 9.97 53.21 10.26 53.75C10.42 54.07 10.63 54.1 10.94 54.02C11.97 53.77 13.01 53.54 14.04 53.28C14.35 53.2 14.56 53.24 14.81 53.5C16 54.74 17.22 55.95 18.46 57.14C18.7 57.38 18.74 57.58 18.67 57.87C18.41 58.92 18.17 59.98 17.91 61.03C17.84 61.31 17.86 61.51 18.16 61.66C18.75 61.98 19.34 62.32 19.9 62.67C20.18 62.85 20.36 62.79 20.58 62.57C21.36 61.82 22.17 61.1 22.95 60.34C23.2 60.1 23.41 60.09 23.74 60.18C25.35 60.65 26.96 61.09 28.59 61.48C28.99 61.58 29.14 61.74 29.24 62.1C29.53 63.1 29.86 64.1 30.14 65.1C30.24 65.44 30.4 65.59 30.76 65.57C31.38 65.55 31.99 65.55 32.61 65.57C32.99 65.59 33.17 65.46 33.27 65.08C33.55 64.07 33.89 63.08 34.17 62.07C34.27 61.7 34.46 61.57 34.84 61.48C36.48 61.08 38.12 60.63 39.75 60.16C40.05 60.08 40.22 60.11 40.43 60.32C41.21 61.07 42.02 61.79 42.8 62.55C43.06 62.8 43.27 62.83 43.57 62.64C44.11 62.3 44.66 61.97 45.22 61.68C45.53 61.51 45.57 61.31 45.49 61C45.23 59.97 45.01 58.93 44.75 57.9C44.66 57.55 44.75 57.34 45.01 57.09C46.22 55.92 47.41 54.73 48.57 53.52C48.81 53.28 49 53.18 49.34 53.27C50.37 53.53 51.41 53.75 52.44 54.01C52.77 54.09 52.99 54.06 53.16 53.73C53.46 53.16 53.78 52.62 54.12 52.08C54.31 51.77 54.25 51.56 54 51.31C53.26 50.54 52.55 49.75 51.81 48.98C51.59 48.76 51.54 48.58 51.64 48.25C52.11 46.62 52.56 44.99 52.95 43.34C53.05 42.94 53.21 42.79 53.57 42.69C54.57 42.41 55.56 42.08 56.57 41.8C56.91 41.7 57.05 41.53 57.04 41.17C57.02 40.56 57.02 39.94 57.04 39.32C57.06 38.94 56.92 38.76 56.54 38.66C55.52 38.38 54.51 38.04 53.49 37.75C53.16 37.66 53.05 37.49 52.96 37.15C52.55 35.51 52.11 33.87 51.64 32.24C51.54 31.9 51.59 31.7 51.83 31.46C52.57 30.69 53.28 29.9 54.02 29.14C54.24 28.9 54.32 28.71 54.13 28.41C53.78 27.86 53.45 27.29 53.15 26.72C52.98 26.4 52.78 26.37 52.47 26.44C51.42 26.71 50.36 26.94 49.31 27.2C49.01 27.28 48.82 27.2 48.59 26.96C47.41 25.74 46.22 24.54 44.99 23.36C44.71 23.1 44.67 22.88 44.75 22.54C45.02 21.46 45.27 20.36 45.55 19.17L45.55 19.17Z" fill="#3F8CAC" fill-opacity="1.000000" fill-rule="nonzero"/>
			<path id="Vector" d="M29.91 11.53C29.32 11.6 28.73 11.7 28.14 11.73C27.82 11.75 27.68 11.87 27.6 12.16C27.29 13.24 26.94 14.3 26.64 15.38C26.53 15.78 26.36 16.04 25.92 16.08C25.64 16.11 25.35 16.17 25.1 16.29C24.38 16.63 23.85 16.49 23.31 15.88C22.68 15.17 21.93 14.57 21.25 13.91C21.01 13.68 20.83 13.63 20.52 13.77C18.34 14.73 16.3 15.91 14.38 17.32C14.1 17.53 14.05 17.72 14.12 18.03C14.4 19.15 14.64 20.28 14.93 21.4C15.01 21.73 14.94 21.92 14.71 22.13C14.32 22.48 13.95 22.85 13.6 23.24C13.38 23.47 13.2 23.54 12.87 23.46C11.75 23.17 10.62 22.93 9.5 22.66C9.19 22.58 9 22.63 8.79 22.91C7.38 24.82 6.2 26.87 5.24 29.05C5.1 29.36 5.15 29.55 5.37 29.78C6.17 30.6 6.92 31.45 7.72 32.26C7.99 32.52 8.03 32.76 7.92 33.1C7.76 33.57 7.61 34.06 7.52 34.55C7.46 34.91 7.28 35.05 6.96 35.14C5.85 35.46 4.75 35.81 3.64 36.14C3.34 36.22 3.22 36.35 3.2 36.67C3.17 37.26 3.07 37.85 3 38.44L3 42.03C3.07 42.62 3.17 43.21 3.2 43.8C3.22 44.12 3.34 44.25 3.64 44.33C4.75 44.65 5.85 45 6.96 45.33C7.28 45.42 7.48 45.56 7.52 45.92C7.56 46.23 7.62 46.55 7.75 46.84C8.09 47.56 7.95 48.09 7.34 48.63C6.63 49.26 6.04 50.01 5.37 50.69C5.14 50.93 5.1 51.12 5.24 51.42C6.19 53.58 7.37 55.61 8.76 57.52C9 57.84 9.21 57.88 9.56 57.79C10.66 57.52 11.77 57.26 12.88 57.03C13.09 56.99 13.37 57.09 13.55 57.22C13.78 57.37 13.92 57.66 14.15 57.8C14.98 58.34 15.04 59.03 14.75 59.9C14.47 60.71 14.34 61.57 14.13 62.4C14.05 62.73 14.09 62.93 14.39 63.15C16.31 64.57 18.35 65.75 20.53 66.7C20.82 66.83 20.99 66.81 21.22 66.59C22.06 65.77 22.92 64.96 23.8 64.18C23.95 64.04 24.25 64 24.47 64.02C24.75 64.04 25.01 64.21 25.28 64.23C26.21 64.3 26.66 64.78 26.83 65.69C27 66.57 27.34 67.41 27.59 68.27C27.67 68.58 27.82 68.7 28.16 68.74C30.49 69 32.82 69 35.15 68.75C35.59 68.7 35.74 68.54 35.85 68.15C36.13 67.12 36.47 66.12 36.76 65.09C36.87 64.69 37.04 64.45 37.48 64.38C37.98 64.3 38.45 64.1 38.95 64.02C39.16 63.98 39.46 64.05 39.61 64.19C40.48 64.96 41.32 65.75 42.16 66.56C42.38 66.78 42.57 66.84 42.88 66.7C45.06 65.74 47.11 64.55 49.03 63.14C49.3 62.94 49.35 62.75 49.28 62.44C49 61.32 48.76 60.18 48.47 59.06C48.39 58.74 48.46 58.54 48.7 58.34C48.93 58.15 49.18 57.96 49.34 57.71C49.82 57.01 50.39 56.87 51.2 57.15C52.08 57.44 53.01 57.59 53.91 57.81C54.22 57.89 54.41 57.83 54.62 57.55C56.03 55.64 57.21 53.59 58.17 51.41C58.31 51.09 58.24 50.91 58.02 50.68C57.26 49.89 56.53 49.06 55.75 48.28C55.42 47.96 55.36 47.66 55.52 47.25C55.63 47 55.73 46.72 55.75 46.45C55.8 45.64 56.25 45.32 56.99 45.16C57.94 44.95 58.86 44.63 59.77 44.32C59.95 44.26 60.15 44.02 60.17 43.84C60.49 41.44 60.47 39.03 60.2 36.63C60.16 36.29 60 36.2 59.73 36.12C58.61 35.78 57.48 35.45 56.36 35.08C56.18 35.02 56.02 34.8 55.92 34.62C55.82 34.44 55.85 34.21 55.75 34.03C55.22 32.99 55.52 32.21 56.39 31.49C57.01 30.98 57.49 30.32 58.06 29.75C58.28 29.52 58.3 29.35 58.17 29.06C57.21 26.88 56.03 24.83 54.62 22.92C54.4 22.61 54.19 22.59 53.87 22.67C52.74 22.94 51.62 23.21 50.49 23.45C50.3 23.49 50.02 23.4 49.87 23.27C49.43 22.89 49.02 22.48 48.64 22.04C48.52 21.91 48.44 21.64 48.48 21.47C48.72 20.33 48.99 19.21 49.26 18.09C49.35 17.74 49.31 17.52 48.99 17.29C47.1 15.9 45.08 14.75 42.95 13.79C42.6 13.63 42.39 13.68 42.12 13.94C41.31 14.74 40.46 15.5 39.64 16.29C39.41 16.51 39.2 16.57 38.9 16.46C38.4 16.29 37.9 16.15 37.38 16.05C37.03 15.99 36.9 15.81 36.8 15.49C36.48 14.37 36.13 13.27 35.81 12.16C35.72 11.87 35.59 11.75 35.27 11.73C34.68 11.7 34.09 11.6 33.5 11.52L29.91 11.52L29.91 11.53ZM29.95 12.09Q29.79 12.12 29.47 12.16Q28.61 12.27 28.17 12.3Q28.16 12.3 28.16 12.31Q28.15 12.31 28.15 12.32Q28.01 12.81 27.71 13.77Q27.36 14.94 27.19 15.53Q27.02 16.14 26.63 16.42Q26.35 16.61 25.97 16.65Q25.59 16.69 25.35 16.8Q24.69 17.11 24.11 17.01Q23.45 16.89 22.89 16.26Q22.51 15.84 21.65 15.05Q21.11 14.57 20.85 14.31Q20.82 14.29 20.79 14.28Q20.77 14.28 20.75 14.29Q18.44 15.31 16.34 16.66Q15.51 17.2 14.72 17.78Q14.69 17.8 14.68 17.82Q14.67 17.85 14.68 17.89Q14.78 18.32 14.98 19.17Q15.3 20.57 15.48 21.26Q15.58 21.64 15.48 21.96Q15.39 22.29 15.09 22.55Q14.52 23.06 14.02 23.62Q13.74 23.92 13.41 24.02Q13.09 24.11 12.73 24.01Q12.07 23.84 10.74 23.53Q9.82 23.32 9.36 23.21Q9.32 23.2 9.29 23.21Q9.27 23.22 9.25 23.25Q8.86 23.77 8.5 24.31Q6.92 26.66 5.76 29.28Q5.75 29.3 5.75 29.31Q5.75 29.35 5.78 29.38Q6.15 29.76 6.86 30.52Q7.7 31.42 8.13 31.86Q8.43 32.17 8.51 32.53Q8.59 32.88 8.46 33.28Q8.18 34.1 8.08 34.66Q8.02 35 7.83 35.24Q7.58 35.55 7.12 35.69Q6.58 35.84 5.5 36.17Q4.37 36.52 3.79 36.68Q3.77 36.69 3.77 36.7L3.77 36.7Q3.74 37.14 3.63 38Q3.59 38.31 3.57 38.48L3.57 41.99Q3.59 42.16 3.63 42.48Q3.74 43.33 3.77 43.76L3.77 43.77Q3.77 43.78 3.79 43.78Q4.35 43.94 5.46 44.28Q6.57 44.62 7.12 44.78Q7.62 44.92 7.86 45.26Q8.04 45.5 8.09 45.85Q8.14 46.32 8.27 46.6Q8.58 47.25 8.47 47.84Q8.35 48.49 7.72 49.05Q7.31 49.42 6.54 50.27Q6.04 50.82 5.77 51.09Q5.76 51.11 5.75 51.13Q5.74 51.16 5.76 51.19Q6.61 53.11 7.69 54.89Q8.4 56.07 9.22 57.19Q9.24 57.21 9.27 57.23Q9.33 57.26 9.42 57.24Q11.46 56.74 12.77 56.47Q12.84 56.46 12.91 56.45Q13.37 56.42 13.87 56.74Q14.05 56.86 14.28 57.14Q14.41 57.3 14.46 57.32Q15.07 57.72 15.31 58.27Q15.64 59.03 15.29 60.08Q15.12 60.57 14.9 61.6Q14.77 62.23 14.68 62.54Q14.67 62.61 14.69 62.66Q14.7 62.68 14.73 62.69Q15.66 63.38 16.64 64Q18.61 65.24 20.76 66.18Q20.79 66.2 20.81 66.19Q20.82 66.18 20.82 66.18Q22.28 64.76 23.42 63.75Q23.45 63.72 23.49 63.7Q23.87 63.41 24.51 63.45Q24.73 63.46 25.07 63.59Q25.26 63.66 25.32 63.66Q26.12 63.72 26.63 64.14Q27.21 64.62 27.39 65.59Q27.49 66.1 27.83 67.15Q28.04 67.79 28.13 68.12Q28.14 68.13 28.14 68.13Q28.16 68.16 28.22 68.17Q30.46 68.42 32.69 68.35Q33.89 68.31 35.09 68.18Q35.17 68.17 35.22 68.13Q35.28 68.08 35.3 68Q35.45 67.47 35.77 66.42Q36.07 65.43 36.21 64.94Q36.36 64.38 36.73 64.1Q37 63.88 37.39 63.82Q37.6 63.78 38.06 63.65Q38.57 63.5 38.85 63.46Q39.25 63.39 39.58 63.51Q39.8 63.59 39.99 63.76Q41.04 64.69 42.55 66.15Q42.6 66.19 42.64 66.19Q42.65 66.19 42.65 66.18Q44.54 65.34 46.3 64.28Q47.53 63.54 48.69 62.68Q48.71 62.67 48.72 62.65Q48.73 62.62 48.72 62.58Q48.61 62.12 48.4 61.21Q48.09 59.87 47.92 59.21Q47.82 58.8 47.93 58.47Q48.03 58.15 48.34 57.9Q48.36 57.88 48.4 57.85Q48.77 57.55 48.87 57.39Q49.29 56.77 49.86 56.56Q50.52 56.32 51.38 56.61Q51.92 56.79 53.06 57.04Q53.72 57.18 54.05 57.26Q54.07 57.27 54.09 57.26Q54.13 57.26 54.16 57.22Q54.2 57.16 54.24 57.1Q56.24 54.36 57.65 51.18Q57.65 51.18 57.65 51.17Q57.66 51.13 57.61 51.08Q57.3 50.76 56.7 50.11Q55.81 49.15 55.35 48.69Q54.98 48.32 54.89 47.9Q54.81 47.5 55 47.04Q55.17 46.62 55.18 46.41Q55.22 45.81 55.52 45.39Q55.94 44.81 56.87 44.6Q57.77 44.4 59.57 43.78L59.59 43.78Q59.61 43.77 59.61 43.77Q60.05 40.39 59.64 36.69Q59.63 36.68 59.57 36.66Q59.41 36.61 59.08 36.52Q57.15 35.94 56.19 35.62Q55.75 35.48 55.42 34.9Q55.32 34.72 55.27 34.41Q55.25 34.29 55.25 34.29Q54.83 33.47 54.94 32.74Q55.08 31.83 56.03 31.05Q56.38 30.76 57.02 30.04Q57.43 29.57 57.65 29.34L57.66 29.34Q57.67 29.33 57.65 29.29Q57.06 27.94 56.34 26.65Q55.36 24.89 54.16 23.25Q54.15 23.24 54.14 23.23Q54.09 23.2 54 23.22Q51.95 23.73 50.6 24.01Q50.35 24.06 50.11 24.01Q49.79 23.95 49.5 23.7Q48.83 23.12 48.21 22.42Q47.99 22.17 47.92 21.88Q47.86 21.63 47.92 21.35Q48.24 19.86 48.71 17.95Q48.73 17.86 48.7 17.8Q48.68 17.77 48.65 17.75Q45.92 15.75 42.71 14.31Q42.67 14.29 42.62 14.29Q42.57 14.3 42.52 14.35Q42.07 14.79 41.15 15.64Q40.4 16.35 40.03 16.7Q39.74 16.99 39.4 17.06Q39.07 17.13 38.71 17Q37.93 16.73 37.28 16.61Q36.94 16.55 36.7 16.36Q36.39 16.11 36.25 15.64Q36.09 15.08 35.75 13.94Q35.42 12.86 35.26 12.32Q35.25 12.31 35.24 12.3Q35.24 12.3 35.23 12.3Q34.8 12.27 33.94 12.16Q33.63 12.12 33.46 12.09L29.95 12.09ZM45.98 18.78Q45.79 18.49 45.59 18.36L45.59 18.36Q45.31 18.18 44.74 17.85Q44.18 17.53 43.9 17.36Q43.49 17.1 43.12 17.14Q42.73 17.18 42.38 17.53Q41.96 17.94 41.08 18.75Q40.4 19.39 40.06 19.72Q40.04 19.73 40.02 19.75Q39.96 19.77 39.88 19.75Q37.09 18.94 34.94 18.43Q34.84 18.4 34.77 18.33Q34.73 18.28 34.71 18.21Q34.57 17.7 34.26 16.7Q33.95 15.7 33.81 15.21Q33.68 14.73 33.36 14.51Q33.07 14.31 32.62 14.32Q31.69 14.36 30.82 14.32Q30.34 14.3 30.04 14.52Q29.72 14.75 29.58 15.24Q29.46 15.7 29.17 16.61Q28.85 17.66 28.71 18.19Q28.7 18.22 28.68 18.25Q28.61 18.39 28.38 18.45Q26.2 18.97 23.55 19.75Q23.46 19.77 23.4 19.74Q23.36 19.73 23.33 19.7Q22.94 19.32 22.14 18.58Q21.38 17.87 21 17.51Q20.63 17.15 20.24 17.13Q19.92 17.11 19.58 17.32Q18.7 17.88 17.92 18.28Q17.56 18.47 17.41 18.77Q17.24 19.11 17.36 19.6L17.76 21.27L18.12 22.76Q18.12 22.76 18.12 22.77Q18.13 22.85 18.04 22.93Q16.01 24.89 14.42 26.55Q14.36 26.61 14.29 26.63Q14.22 26.65 14.15 26.63Q13.64 26.5 12.62 26.26Q11.61 26.03 11.1 25.9Q10.59 25.77 10.23 25.96Q9.93 26.11 9.73 26.48Q9.34 27.25 8.83 28.02Q8.59 28.4 8.61 28.76Q8.63 29.19 9.03 29.6Q9.42 30 10.19 30.82Q10.85 31.53 11.18 31.88Q11.21 31.9 11.22 31.93Q11.24 31.99 11.22 32.06Q10.46 34.69 9.88 37.04Q9.86 37.14 9.8 37.18Q9.77 37.21 9.73 37.22Q9.18 37.38 8.09 37.71Q7.11 38.01 6.62 38.15Q6.18 38.28 5.97 38.57Q5.78 38.84 5.8 39.26Q5.83 40.18 5.8 41.18Q5.78 41.63 5.99 41.91Q6.2 42.21 6.65 42.34Q7.08 42.46 7.94 42.72Q9.08 43.08 9.66 43.23Q9.69 43.24 9.72 43.25Q9.86 43.32 9.91 43.56Q10.45 45.78 11.21 48.38Q11.24 48.48 11.21 48.55Q11.19 48.58 11.17 48.61Q10.84 48.95 10.21 49.63Q9.42 50.48 9.02 50.89Q8.66 51.25 8.62 51.64Q8.57 52.03 8.84 52.46Q9.38 53.31 9.75 54.02Q9.94 54.38 10.24 54.53Q10.59 54.7 11.07 54.58L12.82 54.16L14.17 53.83Q14.25 53.82 14.31 53.84Q14.36 53.85 14.4 53.9Q16.12 55.68 18.06 57.55Q18.1 57.59 18.11 57.63Q18.13 57.68 18.11 57.73L17.57 60.01L17.36 60.89Q17.24 61.37 17.41 61.71Q17.55 61.99 17.9 62.17Q18.68 62.58 19.6 63.16Q19.94 63.37 20.26 63.34Q20.63 63.32 20.98 62.98Q21.34 62.64 22.07 61.96Q22.92 61.16 23.35 60.75Q23.35 60.75 23.35 60.75Q23.42 60.69 23.58 60.73Q26.49 61.57 28.46 62.04Q28.57 62.07 28.64 62.14Q28.68 62.19 28.7 62.25Q28.84 62.77 29.15 63.79Q29.45 64.77 29.59 65.26Q29.73 65.74 30.04 65.96Q30.34 66.16 30.79 66.14Q31.25 66.12 31.72 66.12Q32.16 66.12 32.59 66.14Q33.07 66.16 33.37 65.94Q33.69 65.71 33.82 65.23Q33.96 64.72 34.28 63.69Q34.58 62.72 34.71 62.23Q34.72 62.21 34.73 62.19Q34.78 62.08 34.97 62.03Q37.14 61.5 39.9 60.71Q39.98 60.69 40.02 60.72Q40.03 60.72 40.04 60.73Q40.4 61.08 41.13 61.76Q41.99 62.55 42.4 62.95Q42.75 63.29 43.12 63.33Q43.49 63.37 43.88 63.12Q44.79 62.55 45.48 62.18Q45.85 61.99 46 61.69Q46.16 61.35 46.04 60.86Q45.92 60.39 45.7 59.43Q45.44 58.31 45.3 57.76Q45.29 57.74 45.29 57.73Q45.28 57.62 45.41 57.5Q47.15 55.82 48.98 53.92Q49.1 53.8 49.19 53.82Q49.19 53.82 49.2 53.82Q49.75 53.96 50.85 54.22Q51.82 54.44 52.3 54.56Q52.81 54.69 53.17 54.51Q53.48 54.36 53.67 53.99Q54.06 53.23 54.6 52.38Q54.83 52.02 54.8 51.68Q54.77 51.28 54.41 50.91Q54.02 50.51 53.25 49.68Q52.57 48.95 52.22 48.59Q52.19 48.56 52.18 48.53Q52.16 48.47 52.18 48.41Q53 45.58 53.51 43.47Q53.53 43.37 53.59 43.31Q53.64 43.26 53.72 43.24Q54.22 43.1 55.2 42.8Q56.22 42.49 56.73 42.34Q57.2 42.21 57.42 41.9Q57.63 41.61 57.61 41.15Q57.59 40.55 57.59 39.95Q57.6 39.65 57.61 39.34Q57.63 38.87 57.41 38.56Q57.18 38.24 56.7 38.11Q56.14 37.96 55.03 37.62Q54.11 37.33 53.64 37.2Q53.64 37.2 53.64 37.2Q53.55 37.17 53.51 37.01Q52.91 34.56 52.19 32.08Q52.16 31.99 52.19 31.92Q52.21 31.89 52.23 31.86Q52.61 31.46 53.35 30.67Q54.07 29.9 54.43 29.53Q54.78 29.16 54.81 28.78Q54.83 28.45 54.61 28.11Q54.06 27.23 53.65 26.45Q53.46 26.09 53.17 25.94Q52.82 25.77 52.33 25.89L51.36 26.13L49.18 26.65Q49.17 26.65 49.16 26.65Q49.09 26.66 49 26.57Q47.09 24.58 45.39 22.95Q45.32 22.89 45.3 22.82Q45.29 22.75 45.3 22.68Q45.49 21.93 45.85 20.39Q46.02 19.67 46.1 19.3L45.69 19.2L46 18.81L45.98 18.78ZM45.48 19.45C45.23 20.54 45 21.54 44.75 22.54C44.67 22.88 44.71 23.1 44.99 23.36C46.22 24.54 47.41 25.74 48.59 26.96C48.82 27.2 49.01 27.28 49.31 27.2C50.36 26.94 51.42 26.71 52.47 26.44C52.78 26.37 52.98 26.4 53.15 26.72C53.45 27.29 53.78 27.86 54.13 28.41C54.32 28.71 54.24 28.9 54.02 29.14C53.28 29.9 52.57 30.69 51.83 31.46C51.59 31.7 51.54 31.9 51.64 32.24C52.11 33.87 52.55 35.51 52.96 37.15C53.05 37.49 53.16 37.66 53.49 37.75C54.51 38.04 55.52 38.38 56.54 38.66C56.92 38.76 57.06 38.94 57.04 39.32C57.02 39.94 57.02 40.56 57.04 41.17C57.05 41.53 56.91 41.7 56.57 41.8C55.56 42.08 54.57 42.41 53.57 42.69C53.21 42.79 53.05 42.94 52.95 43.34C52.56 44.99 52.11 46.62 51.64 48.25C51.54 48.58 51.59 48.76 51.81 48.98C52.55 49.75 53.26 50.54 54 51.31C54.25 51.56 54.31 51.77 54.12 52.08C53.78 52.62 53.46 53.16 53.16 53.73C52.99 54.06 52.77 54.09 52.44 54.01C51.41 53.75 50.37 53.53 49.34 53.27C49 53.18 48.81 53.28 48.57 53.52C47.41 54.73 46.22 55.92 45.01 57.09C44.75 57.34 44.66 57.55 44.75 57.9C45.01 58.93 45.23 59.97 45.49 61C45.57 61.31 45.53 61.51 45.22 61.68C44.66 61.97 44.11 62.3 43.57 62.64C43.27 62.83 43.06 62.8 42.8 62.55C42.02 61.79 41.21 61.07 40.43 60.32C40.22 60.11 40.05 60.08 39.75 60.16C38.12 60.63 36.48 61.08 34.84 61.48C34.46 61.57 34.27 61.7 34.17 62.07C33.89 63.08 33.55 64.07 33.27 65.08C33.17 65.46 32.99 65.59 32.61 65.57C31.99 65.55 31.38 65.55 30.76 65.57C30.4 65.59 30.24 65.44 30.14 65.1C29.86 64.1 29.53 63.1 29.24 62.1C29.14 61.74 28.99 61.58 28.59 61.48C26.96 61.09 25.35 60.65 23.74 60.18C23.41 60.09 23.2 60.1 22.95 60.34C22.17 61.1 21.36 61.82 20.58 62.57C20.36 62.79 20.18 62.85 19.9 62.67C19.34 62.32 18.75 61.98 18.16 61.66C17.86 61.51 17.84 61.31 17.91 61.03C18.17 59.98 18.41 58.92 18.67 57.87C18.74 57.58 18.7 57.38 18.46 57.14C17.22 55.95 16 54.74 14.81 53.5C14.56 53.24 14.35 53.2 14.04 53.28C13.01 53.54 11.97 53.77 10.94 54.02C10.63 54.1 10.42 54.07 10.26 53.75C9.97 53.21 9.66 52.68 9.33 52.16C9.11 51.82 9.13 51.58 9.42 51.29C10.16 50.55 10.85 49.76 11.58 49.01C11.81 48.77 11.86 48.57 11.76 48.23C11.3 46.63 10.86 45.03 10.47 43.42C10.37 43.01 10.24 42.79 9.81 42.68C8.8 42.41 7.81 42.07 6.8 41.79C6.48 41.7 6.36 41.54 6.37 41.2C6.39 40.55 6.39 39.89 6.37 39.24C6.36 38.92 6.49 38.78 6.78 38.69C7.82 38.39 8.85 38.06 9.89 37.77C10.21 37.67 10.35 37.53 10.44 37.18C10.85 35.52 11.29 33.86 11.77 32.22C11.86 31.89 11.81 31.71 11.59 31.48C10.87 30.73 10.17 29.95 9.44 29.2C9.17 28.92 9.08 28.69 9.31 28.33C9.65 27.82 9.96 27.29 10.24 26.74C10.42 26.4 10.64 26.37 10.97 26.45C11.98 26.71 13 26.93 14.01 27.18C14.35 27.27 14.57 27.22 14.83 26.94C16.01 25.72 17.21 24.52 18.43 23.34C18.67 23.12 18.75 22.93 18.67 22.62C18.41 21.57 18.18 20.52 17.92 19.47C17.84 19.16 17.87 18.95 18.19 18.79C18.76 18.49 19.33 18.15 19.88 17.81C20.18 17.61 20.37 17.69 20.61 17.92C21.37 18.66 22.17 19.37 22.93 20.11C23.17 20.34 23.37 20.39 23.71 20.29C25.3 19.83 26.9 19.39 28.51 19C28.93 18.9 29.14 18.77 29.26 18.34C29.52 17.35 29.86 16.38 30.13 15.39C30.23 15.01 30.41 14.88 30.79 14.89C31.41 14.92 32.03 14.92 32.64 14.89C33 14.88 33.17 15.02 33.27 15.36C33.55 16.37 33.88 17.36 34.16 18.37C34.26 18.72 34.41 18.89 34.81 18.98C36.46 19.38 38.09 19.83 39.72 20.3C40.05 20.39 40.23 20.34 40.45 20.13C41.22 19.39 42.02 18.68 42.78 17.93C43.06 17.65 43.28 17.64 43.6 17.84C44.08 18.14 44.58 18.42 45.07 18.71C45.14 18.75 45.21 18.8 45.28 18.84C45.41 18.92 45.49 19.09 45.55 19.17L45.55 19.17L45.55 19.17C45.55 19.17 45.55 19.17 45.55 19.17C45.53 19.26 45.5 19.36 45.48 19.45Z" fill="#FFFFFF" fill-opacity="1.000000" fill-rule="evenodd"/>
			<circle id="Ellipse 30" cx="31.705872" cy="40.235352" r="11.705882" stroke="#3F8CAC" stroke-opacity="1.000000" stroke-width="2.000000"/>
			<circle id="Ellipse 31" cx="31.705872" cy="40.235352" r="7.941176" stroke="#3F8CAC" stroke-opacity="1.000000" stroke-width="2.000000"/>
			<path id="Vector 32" d="M30.76 12.94L35.41 8.06C35.78 7.67 36.39 7.65 36.79 8L38.57 9.56C38.86 9.82 39.28 9.88 39.64 9.72L42.57 8.38C42.92 8.22 43.15 7.86 43.15 7.47L43.15 5C43.15 4.44 43.6 4 44.15 4L50.35 4C50.9 4 51.35 4.44 51.35 5L51.35 7.47C51.35 7.86 51.58 8.22 51.93 8.38L54.86 9.72C55.22 9.88 55.64 9.82 55.93 9.56L57.72 7.99C58.12 7.64 58.72 7.66 59.09 8.03L63.27 12.24C63.68 12.64 63.66 13.31 63.23 13.69L61.25 15.45C60.91 15.76 60.82 16.27 61.04 16.68L62.61 19.58C62.79 19.9 63.13 20.1 63.49 20.1L66 20.1C66.55 20.1 67 20.55 67 21.1L67 27.25C67 27.83 66.49 28.29 65.9 28.24L63.58 28.03C63.17 27.99 62.78 28.21 62.59 28.58L61.03 31.73C60.81 32.16 60.93 32.67 61.3 32.96L63.13 34.39C63.6 34.76 63.64 35.46 63.22 35.88L58.43 40.7" stroke="#3F8CAC" stroke-opacity="1.000000" stroke-width="2.200000"/>
		</g>
		<path id="Vector" d="M37.59 15C38.86 15 40.13 15 41.4 15C42.03 15.07 42.66 15.18 43.29 15.21C43.63 15.23 43.77 15.36 43.86 15.67C44.2 16.85 44.57 18.02 44.92 19.2C45.01 19.54 45.16 19.74 45.53 19.81C46.08 19.91 46.62 20.06 47.14 20.24C47.47 20.35 47.68 20.3 47.93 20.06C48.8 19.22 49.7 18.41 50.56 17.56C50.85 17.28 51.08 17.23 51.44 17.4C53.71 18.42 55.86 19.65 57.86 21.12C58.2 21.37 58.25 21.6 58.16 21.97C57.86 23.16 57.58 24.36 57.32 25.56C57.28 25.75 57.36 26.03 57.49 26.17C57.9 26.63 58.33 27.07 58.8 27.47C58.96 27.61 59.25 27.71 59.45 27.66C60.66 27.41 61.85 27.13 63.05 26.83C63.39 26.75 63.61 26.78 63.85 27.1C65.35 29.14 66.6 31.31 67.62 33.63C67.75 33.93 67.73 34.12 67.5 34.36C66.9 34.96 66.38 35.66 65.73 36.2C64.81 36.97 64.49 37.8 65.05 38.9C65.15 39.09 65.12 39.35 65.22 39.53C65.34 39.73 65.5 39.96 65.7 40.02C66.88 40.42 68.08 40.77 69.28 41.12C69.56 41.21 69.74 41.31 69.78 41.67C70.06 44.22 70.08 46.78 69.75 49.33C69.72 49.52 69.51 49.77 69.32 49.84C68.35 50.17 67.37 50.5 66.37 50.73C65.57 50.91 65.1 51.25 65.04 52.1C65.03 52.39 64.92 52.68 64.81 52.96C64.64 53.39 64.69 53.7 65.04 54.05C65.88 54.88 66.65 55.76 67.46 56.6C67.7 56.84 67.77 57.03 67.62 57.38C66.6 59.69 65.34 61.86 63.84 63.9C63.63 64.19 63.43 64.26 63.09 64.18C62.13 63.94 61.14 63.78 60.21 63.47C59.35 63.18 58.74 63.33 58.24 64.07C58.06 64.33 57.8 64.53 57.56 64.73C57.3 64.95 57.23 65.16 57.32 65.51C57.63 66.7 57.88 67.9 58.17 69.09C58.25 69.42 58.2 69.63 57.9 69.84C55.86 71.34 53.69 72.6 51.38 73.62C51.04 73.77 50.85 73.7 50.6 73.47C49.72 72.61 48.82 71.77 47.9 70.95C47.74 70.8 47.42 70.73 47.19 70.77C46.67 70.86 46.16 71.07 45.64 71.16C45.17 71.23 44.99 71.48 44.87 71.91C44.56 73 44.21 74.07 43.91 75.16C43.79 75.57 43.62 75.75 43.16 75.8C40.68 76.07 38.21 76.06 35.73 75.78C35.37 75.74 35.22 75.62 35.12 75.29C34.87 74.37 34.5 73.48 34.32 72.55C34.14 71.58 33.66 71.07 32.67 70.99C32.38 70.97 32.1 70.79 31.81 70.77C31.58 70.75 31.26 70.8 31.1 70.94C30.16 71.77 29.26 72.63 28.36 73.5C28.12 73.73 27.93 73.75 27.63 73.62C25.31 72.61 23.14 71.35 21.1 69.85C20.78 69.62 20.74 69.4 20.83 69.05C21.05 68.17 21.19 67.26 21.48 66.4C21.79 65.47 21.73 64.73 20.84 64.17C20.6 64.01 20.45 63.7 20.21 63.54C20.01 63.41 19.72 63.3 19.5 63.35C18.32 63.59 17.14 63.87 15.97 64.16C15.6 64.25 15.37 64.21 15.12 63.87C13.64 61.84 12.39 59.68 11.38 57.39C11.23 57.06 11.27 56.86 11.52 56.61C12.23 55.89 12.86 55.09 13.61 54.42C14.26 53.84 14.41 53.28 14.05 52.51C13.91 52.21 13.84 51.87 13.8 51.54C13.76 51.15 13.55 51.01 13.21 50.91C12.03 50.57 10.86 50.19 9.68 49.85C9.37 49.76 9.23 49.63 9.21 49.29C9.18 48.66 9.07 48.04 9 47.41C9 46.14 9 44.86 9 43.59C9.07 42.97 9.18 42.34 9.21 41.71C9.23 41.37 9.37 41.23 9.68 41.14C10.86 40.8 12.03 40.43 13.21 40.09C13.54 39.99 13.74 39.84 13.81 39.46C13.9 38.94 14.06 38.42 14.23 37.92C14.35 37.56 14.3 37.31 14.02 37.03C13.17 36.16 12.36 35.26 11.52 34.39C11.28 34.14 11.23 33.95 11.38 33.61C12.4 31.3 13.65 29.13 15.15 27.09C15.37 26.79 15.58 26.74 15.9 26.82C17.1 27.11 18.3 27.37 19.49 27.68C19.83 27.77 20.03 27.69 20.26 27.44C20.63 27.03 21.03 26.64 21.44 26.26C21.69 26.04 21.76 25.83 21.67 25.49C21.36 24.3 21.11 23.1 20.82 21.9C20.74 21.58 20.79 21.38 21.09 21.16C23.13 19.66 25.3 18.4 27.61 17.38C27.95 17.23 28.14 17.28 28.39 17.53C29.11 18.23 29.91 18.87 30.58 19.62C31.15 20.27 31.72 20.42 32.48 20.06C32.75 19.93 33.05 19.87 33.35 19.84C33.82 19.79 34 19.52 34.12 19.09C34.44 17.95 34.81 16.82 35.14 15.67C35.23 15.36 35.37 15.24 35.71 15.21C36.34 15.18 36.96 15.07 37.59 15L37.59 15ZM54.21 23.12C54.15 23.03 54.06 22.86 53.93 22.77C53.34 22.4 52.73 22.07 52.14 21.71C51.8 21.49 51.56 21.51 51.26 21.8C50.46 22.6 49.61 23.35 48.8 24.13C48.56 24.37 48.36 24.41 48.02 24.32C46.29 23.82 44.55 23.34 42.8 22.92C42.38 22.82 42.22 22.64 42.11 22.26C41.81 21.2 41.46 20.14 41.16 19.07C41.05 18.71 40.88 18.56 40.49 18.58C39.84 18.6 39.18 18.6 38.53 18.58C38.12 18.56 37.94 18.7 37.83 19.1C37.54 20.15 37.18 21.18 36.9 22.24C36.78 22.69 36.55 22.83 36.11 22.94C34.4 23.35 32.7 23.82 31.01 24.31C30.64 24.42 30.43 24.36 30.18 24.12C29.36 23.33 28.52 22.57 27.71 21.79C27.46 21.55 27.26 21.47 26.94 21.67C26.35 22.04 25.75 22.39 25.14 22.71C24.8 22.89 24.77 23.1 24.85 23.43C25.12 24.55 25.37 25.67 25.65 26.79C25.73 27.11 25.65 27.31 25.4 27.55C24.1 28.81 22.82 30.08 21.57 31.38C21.29 31.67 21.06 31.72 20.7 31.63C19.62 31.36 18.54 31.13 17.46 30.86C17.11 30.77 16.88 30.8 16.69 31.16C16.39 31.74 16.06 32.31 15.7 32.86C15.46 33.23 15.55 33.48 15.84 33.77C16.62 34.57 17.36 35.4 18.13 36.2C18.36 36.44 18.42 36.64 18.32 36.98C17.81 38.73 17.34 40.49 16.9 42.26C16.81 42.63 16.66 42.78 16.32 42.88C15.22 43.19 14.12 43.54 13.02 43.86C12.71 43.95 12.57 44.1 12.58 44.44C12.6 45.14 12.6 45.83 12.58 46.53C12.57 46.88 12.7 47.05 13.04 47.15C14.11 47.45 15.16 47.82 16.23 48.1C16.69 48.22 16.83 48.45 16.93 48.89C17.35 50.6 17.82 52.3 18.31 53.99C18.41 54.35 18.36 54.56 18.11 54.82C17.34 55.62 16.61 56.46 15.82 57.24C15.51 57.56 15.5 57.81 15.72 58.17C16.07 58.72 16.41 59.28 16.71 59.86C16.89 60.2 17.1 60.23 17.43 60.15C18.53 59.88 19.63 59.63 20.73 59.36C21.06 59.28 21.28 59.32 21.55 59.6C22.82 60.91 24.11 62.2 25.42 63.46C25.68 63.71 25.72 63.92 25.65 64.24C25.37 65.35 25.12 66.48 24.84 67.59C24.77 67.9 24.79 68.1 25.11 68.27C25.74 68.6 26.36 68.96 26.96 69.34C27.26 69.52 27.45 69.46 27.68 69.23C28.51 68.43 29.37 67.67 30.19 66.86C30.46 66.6 30.69 66.6 31.03 66.7C32.74 67.19 34.46 67.66 36.19 68.08C36.61 68.18 36.78 68.35 36.88 68.73C37.19 69.8 37.53 70.85 37.84 71.92C37.94 72.29 38.11 72.44 38.5 72.42C39.15 72.39 39.81 72.39 40.46 72.42C40.87 72.44 41.06 72.3 41.17 71.9C41.46 70.83 41.82 69.77 42.11 68.7C42.22 68.31 42.42 68.17 42.83 68.07C44.57 67.64 46.31 67.17 48.04 66.67C48.36 66.58 48.54 66.62 48.77 66.84C49.6 67.64 50.46 68.4 51.29 69.21C51.56 69.48 51.79 69.5 52.11 69.3C52.68 68.95 53.26 68.6 53.86 68.29C54.19 68.11 54.23 67.89 54.15 67.56C53.87 66.47 53.63 65.36 53.35 64.27C53.26 63.89 53.36 63.68 53.64 63.4C54.93 62.17 56.18 60.9 57.42 59.62C57.68 59.36 57.88 59.25 58.23 59.34C59.33 59.62 60.43 59.86 61.53 60.14C61.88 60.23 62.11 60.19 62.3 59.83C62.61 59.24 62.95 58.66 63.31 58.09C63.52 57.75 63.45 57.53 63.19 57.27C62.4 56.45 61.65 55.61 60.86 54.79C60.63 54.56 60.58 54.36 60.68 54.02C61.18 52.29 61.65 50.55 62.07 48.8C62.18 48.37 62.35 48.22 62.73 48.11C63.8 47.81 64.85 47.46 65.92 47.16C66.28 47.06 66.43 46.88 66.42 46.49C66.39 45.84 66.39 45.18 66.42 44.53C66.43 44.12 66.29 43.93 65.89 43.83C64.8 43.53 63.73 43.17 62.64 42.86C62.3 42.76 62.17 42.58 62.08 42.22C61.65 40.48 61.18 38.74 60.68 37.01C60.58 36.64 60.63 36.43 60.88 36.18C61.66 35.36 62.42 34.52 63.2 33.71C63.45 33.46 63.52 33.25 63.32 32.94C62.95 32.35 62.6 31.75 62.28 31.14C62.11 30.8 61.89 30.77 61.56 30.85C60.44 31.12 59.32 31.38 58.2 31.65C57.88 31.73 57.68 31.65 57.44 31.4C56.19 30.1 54.92 28.82 53.62 27.57C53.32 27.29 53.27 27.06 53.36 26.7C53.65 25.55 53.91 24.39 54.21 23.11L54.21 23.12Z" fill="#FFFFFF" fill-opacity="1.000000" fill-rule="nonzero"/>
		<path id="Vector" d="M37.59 15C36.96 15.07 36.34 15.18 35.71 15.21C35.37 15.24 35.23 15.36 35.14 15.67C34.81 16.82 34.44 17.95 34.12 19.09C34 19.52 33.82 19.79 33.35 19.84C33.05 19.87 32.75 19.93 32.48 20.06C31.72 20.42 31.15 20.27 30.58 19.62C29.91 18.87 29.11 18.23 28.39 17.53C28.14 17.28 27.95 17.23 27.61 17.38C25.3 18.4 23.13 19.66 21.09 21.16C20.79 21.38 20.74 21.58 20.82 21.9C21.11 23.1 21.36 24.3 21.67 25.49C21.76 25.83 21.69 26.04 21.44 26.26C21.03 26.64 20.63 27.03 20.26 27.44C20.03 27.69 19.83 27.77 19.49 27.68C18.3 27.37 17.1 27.11 15.9 26.82C15.58 26.74 15.37 26.79 15.15 27.09C13.65 29.13 12.4 31.3 11.38 33.61C11.23 33.95 11.28 34.14 11.52 34.39C12.36 35.26 13.17 36.16 14.02 37.03C14.3 37.31 14.35 37.56 14.23 37.92C14.06 38.42 13.9 38.94 13.81 39.46C13.74 39.84 13.54 39.99 13.21 40.09C12.03 40.43 10.86 40.8 9.68 41.14C9.37 41.23 9.23 41.37 9.21 41.71C9.18 42.34 9.07 42.97 9 43.59L9 47.41C9.07 48.04 9.18 48.66 9.21 49.29C9.23 49.63 9.37 49.76 9.68 49.85C10.86 50.19 12.03 50.57 13.21 50.91C13.55 51.01 13.76 51.15 13.8 51.54C13.84 51.87 13.91 52.21 14.05 52.51C14.41 53.28 14.26 53.84 13.61 54.42C12.86 55.09 12.23 55.89 11.52 56.61C11.27 56.86 11.23 57.06 11.38 57.39C12.39 59.68 13.64 61.84 15.12 63.87C15.37 64.21 15.6 64.25 15.97 64.16C17.14 63.87 18.32 63.59 19.5 63.35C19.72 63.3 20.01 63.41 20.21 63.54C20.45 63.7 20.6 64.01 20.84 64.17C21.73 64.73 21.79 65.47 21.48 66.4C21.19 67.26 21.05 68.17 20.83 69.05C20.74 69.4 20.78 69.62 21.1 69.85C23.14 71.35 25.31 72.61 27.63 73.62C27.93 73.75 28.12 73.73 28.36 73.5C29.26 72.63 30.16 71.77 31.1 70.94C31.26 70.8 31.58 70.75 31.81 70.77C32.1 70.79 32.38 70.97 32.67 70.99C33.66 71.07 34.14 71.58 34.32 72.55C34.5 73.48 34.87 74.37 35.12 75.29C35.22 75.62 35.37 75.74 35.73 75.78C38.21 76.06 40.68 76.07 43.16 75.8C43.62 75.75 43.79 75.57 43.91 75.16C44.21 74.07 44.56 73 44.87 71.91C44.99 71.48 45.17 71.23 45.64 71.16C46.16 71.07 46.67 70.86 47.19 70.77C47.42 70.73 47.74 70.8 47.9 70.95C48.82 71.77 49.72 72.61 50.6 73.47C50.85 73.7 51.04 73.77 51.38 73.62C53.69 72.6 55.86 71.34 57.9 69.84C58.2 69.63 58.25 69.42 58.17 69.09C57.88 67.9 57.63 66.7 57.32 65.51C57.23 65.16 57.3 64.95 57.56 64.73C57.8 64.53 58.06 64.33 58.24 64.07C58.74 63.33 59.35 63.18 60.21 63.47C61.14 63.78 62.13 63.94 63.09 64.18C63.43 64.26 63.63 64.19 63.84 63.9C65.34 61.86 66.6 59.69 67.62 57.38C67.77 57.03 67.7 56.84 67.46 56.6C66.65 55.76 65.88 54.88 65.04 54.05C64.69 53.7 64.64 53.39 64.81 52.96C64.92 52.68 65.03 52.39 65.04 52.1C65.1 51.25 65.57 50.91 66.37 50.73C67.37 50.5 68.35 50.17 69.32 49.84C69.51 49.77 69.72 49.52 69.75 49.33C70.08 46.78 70.06 44.22 69.78 41.67C69.74 41.31 69.56 41.21 69.28 41.12C68.08 40.77 66.88 40.42 65.7 40.02C65.5 39.96 65.34 39.73 65.22 39.53C65.12 39.35 65.15 39.09 65.05 38.9C64.49 37.8 64.81 36.97 65.73 36.2C66.38 35.66 66.9 34.96 67.5 34.36C67.73 34.12 67.75 33.93 67.62 33.63C66.6 31.31 65.35 29.14 63.85 27.1C63.61 26.78 63.39 26.75 63.05 26.83C61.85 27.13 60.66 27.41 59.45 27.66C59.25 27.71 58.96 27.61 58.8 27.47C58.33 27.07 57.9 26.63 57.49 26.17C57.36 26.03 57.28 25.75 57.32 25.56C57.58 24.36 57.86 23.16 58.16 21.97C58.25 21.6 58.2 21.37 57.86 21.12C55.86 19.65 53.71 18.42 51.44 17.4C51.08 17.23 50.85 17.28 50.56 17.56C49.7 18.41 48.8 19.22 47.93 20.06C47.68 20.3 47.47 20.35 47.14 20.24C46.62 20.06 46.08 19.91 45.53 19.81C45.16 19.74 45.01 19.54 44.92 19.2C44.57 18.02 44.2 16.85 43.86 15.67C43.77 15.36 43.63 15.23 43.29 15.21C42.66 15.18 42.03 15.07 41.4 15L37.59 15L37.59 15ZM37.64 15.56Q37.46 15.59 37.11 15.63Q36.21 15.76 35.74 15.78Q35.72 15.79 35.71 15.8Q35.69 15.81 35.68 15.83Q35.54 16.35 35.23 17.37Q34.84 18.62 34.67 19.25Q34.49 19.88 34.08 20.17Q33.8 20.37 33.41 20.41Q32.99 20.45 32.73 20.57Q32.05 20.89 31.44 20.79Q30.75 20.67 30.15 20Q29.76 19.55 28.84 18.72Q28.27 18.2 27.99 17.93Q27.95 17.89 27.91 17.89Q27.88 17.89 27.84 17.9Q25.39 18.99 23.16 20.42Q22.27 20.99 21.43 21.61Q21.39 21.64 21.38 21.67Q21.36 21.72 21.37 21.77Q21.48 22.22 21.69 23.13Q22.04 24.61 22.23 25.35Q22.33 25.74 22.23 26.07Q22.13 26.41 21.82 26.69Q21.22 27.23 20.68 27.82Q20.39 28.14 20.05 28.24Q19.72 28.33 19.34 28.23Q18.64 28.05 17.23 27.72Q16.25 27.5 15.77 27.38Q15.71 27.36 15.67 27.38Q15.64 27.39 15.61 27.43Q15.2 27.99 14.81 28.57Q13.13 31.06 11.9 33.85Q11.88 33.87 11.89 33.9Q11.89 33.95 11.93 33.99Q12.32 34.39 13.07 35.2Q13.97 36.16 14.43 36.63Q14.74 36.95 14.82 37.32Q14.91 37.68 14.77 38.1Q14.47 38.97 14.37 39.57Q14.3 39.92 14.1 40.17Q13.85 40.49 13.36 40.63Q12.79 40.8 11.65 41.15Q10.44 41.52 9.83 41.69Q9.8 41.7 9.79 41.72Q9.78 41.73 9.78 41.74Q9.76 42.21 9.63 43.12Q9.59 43.45 9.57 43.63L9.57 47.37Q9.59 47.55 9.63 47.89Q9.76 48.79 9.78 49.25Q9.78 49.26 9.79 49.27Q9.8 49.29 9.83 49.3Q10.43 49.48 11.61 49.84Q12.78 50.19 13.37 50.36Q13.89 50.51 14.14 50.86Q14.33 51.11 14.37 51.47Q14.43 51.98 14.57 52.27Q14.89 52.96 14.78 53.57Q14.65 54.26 13.99 54.84Q13.55 55.24 12.74 56.14Q12.2 56.73 11.92 57.01Q11.9 57.04 11.89 57.07Q11.88 57.11 11.9 57.16Q12.8 59.2 13.95 61.08Q14.71 62.34 15.58 63.53Q15.61 63.57 15.65 63.59Q15.72 63.63 15.83 63.6Q18 63.07 19.39 62.79Q19.46 62.77 19.53 62.77Q20.01 62.73 20.53 63.07Q20.72 63.19 20.96 63.49Q21.1 63.65 21.15 63.69Q21.79 64.1 22.05 64.68Q22.39 65.47 22.02 66.58Q21.85 67.09 21.61 68.19Q21.47 68.86 21.38 69.19Q21.36 69.28 21.39 69.34Q21.41 69.37 21.44 69.39Q22.43 70.12 23.47 70.78Q25.57 72.09 27.86 73.1Q27.9 73.12 27.94 73.11Q27.95 73.1 27.96 73.09Q29.51 71.59 30.72 70.52Q30.75 70.49 30.79 70.46Q31.19 70.16 31.85 70.2Q32.08 70.22 32.44 70.34Q32.65 70.42 32.72 70.42Q33.55 70.49 34.08 70.93Q34.69 71.43 34.88 72.45Q34.99 73 35.35 74.1Q35.57 74.78 35.67 75.13Q35.68 75.15 35.69 75.17Q35.72 75.21 35.79 75.22Q38.18 75.48 40.56 75.41Q41.83 75.37 43.1 75.23Q43.2 75.22 43.26 75.17Q43.33 75.11 43.36 75.01Q43.51 74.44 43.85 73.33Q44.17 72.28 44.32 71.76Q44.48 71.18 44.86 70.88Q45.14 70.66 45.55 70.59Q45.77 70.56 46.26 70.41Q46.8 70.26 47.1 70.21Q47.51 70.14 47.85 70.26Q48.08 70.35 48.28 70.52Q49.39 71.51 51 73.06Q51.06 73.11 51.11 73.11Q51.13 73.11 51.15 73.1Q53.16 72.21 55.03 71.08Q56.33 70.29 57.57 69.38Q57.6 69.36 57.61 69.32Q57.63 69.28 57.62 69.23Q57.5 68.74 57.28 67.77Q56.95 66.35 56.77 65.65Q56.66 65.23 56.77 64.89Q56.88 64.56 57.19 64.3Q57.22 64.28 57.26 64.24Q57.65 63.92 57.77 63.75Q58.21 63.1 58.8 62.88Q59.49 62.62 60.39 62.93Q60.96 63.12 62.18 63.39Q62.88 63.54 63.24 63.63Q63.27 63.63 63.3 63.63Q63.34 63.62 63.38 63.56Q63.43 63.5 63.47 63.44Q65.6 60.52 67.1 57.14Q67.11 57.13 67.11 57.12Q67.11 57.06 67.05 57Q66.72 56.66 66.09 55.97Q65.13 54.94 64.64 54.46Q64.26 54.08 64.17 53.64Q64.09 53.22 64.28 52.75Q64.46 52.29 64.48 52.07Q64.51 51.43 64.83 51Q65.27 50.39 66.24 50.17Q67.21 49.96 69.11 49.31L69.14 49.3Q69.17 49.29 69.18 49.26Q69.18 49.26 69.18 49.26Q69.65 45.67 69.21 41.73Q69.21 41.7 69.12 41.67Q68.94 41.62 68.6 41.52Q66.54 40.9 65.52 40.57Q65.08 40.42 64.73 39.81Q64.63 39.63 64.57 39.3Q64.55 39.18 64.54 39.16Q64.11 38.31 64.23 37.55Q64.37 36.59 65.37 35.77Q65.74 35.46 66.42 34.69Q66.86 34.19 67.1 33.95Q67.1 33.95 67.1 33.94Q67.12 33.91 67.1 33.86Q66.47 32.42 65.71 31.06Q64.67 29.18 63.39 27.44Q63.37 27.41 63.35 27.4Q63.29 27.36 63.18 27.39Q61.01 27.92 59.57 28.22Q59.31 28.28 59.06 28.23Q58.73 28.16 58.43 27.9Q57.72 27.29 57.06 26.55Q56.83 26.29 56.76 25.99Q56.7 25.73 56.77 25.44Q57.1 23.86 57.6 21.83Q57.63 21.73 57.59 21.65Q57.57 21.61 57.53 21.58Q54.62 19.45 51.21 17.92Q51.15 17.89 51.09 17.9Q51.03 17.91 50.96 17.97Q50.49 18.44 49.51 19.35Q48.71 20.09 48.32 20.47Q48.02 20.77 47.66 20.84Q47.33 20.91 46.95 20.78Q46.12 20.49 45.43 20.37Q45.08 20.3 44.83 20.11Q44.51 19.85 44.37 19.36Q44.19 18.76 43.83 17.56Q43.48 16.41 43.31 15.83Q43.3 15.8 43.28 15.79Q43.27 15.78 43.25 15.78Q42.79 15.76 41.88 15.63Q41.55 15.59 41.37 15.56L37.64 15.56ZM54.63 22.72Q54.44 22.42 54.23 22.29L54.23 22.29Q53.93 22.1 53.33 21.75Q52.73 21.4 52.44 21.22Q52.02 20.95 51.63 21Q51.23 21.04 50.86 21.4Q50.41 21.84 49.49 22.7Q48.76 23.38 48.4 23.72Q48.37 23.75 48.34 23.76Q48.27 23.79 48.17 23.77Q45.21 22.91 42.93 22.36Q42.81 22.33 42.74 22.26Q42.68 22.2 42.66 22.11Q42.5 21.57 42.18 20.5Q41.86 19.45 41.71 18.92Q41.57 18.43 41.24 18.2Q40.94 17.99 40.47 18.01Q39.48 18.04 38.55 18.01Q38.06 17.98 37.75 18.21Q37.42 18.44 37.28 18.95Q37.14 19.44 36.84 20.41Q36.5 21.52 36.35 22.09Q36.34 22.13 36.32 22.16Q36.23 22.32 35.97 22.38Q33.66 22.95 30.85 23.76Q30.74 23.79 30.66 23.76Q30.61 23.75 30.57 23.71Q30.16 23.3 29.31 22.52Q28.5 21.76 28.1 21.38Q27.72 21.01 27.32 20.98Q26.98 20.97 26.63 21.19Q25.7 21.78 24.87 22.21Q24.5 22.4 24.35 22.71Q24.17 23.06 24.29 23.57L24.68 25.16L25.1 26.92Q25.1 26.93 25.1 26.95Q25.11 27.04 25 27.14Q22.85 29.22 21.16 30.98Q21.09 31.06 21.01 31.08Q20.93 31.1 20.84 31.08Q20.3 30.94 19.21 30.69Q18.14 30.44 17.6 30.3Q17.07 30.17 16.69 30.36Q16.38 30.52 16.19 30.9Q15.76 31.72 15.23 32.55Q14.98 32.93 15 33.3Q15.02 33.75 15.44 34.17Q15.85 34.6 16.66 35.47Q17.36 36.23 17.72 36.6Q17.75 36.63 17.77 36.67Q17.79 36.74 17.77 36.82Q16.96 39.61 16.35 42.12Q16.32 42.23 16.25 42.29Q16.21 42.31 16.16 42.33Q15.58 42.5 14.42 42.85Q13.38 43.16 12.86 43.32Q12.4 43.45 12.19 43.75Q11.99 44.03 12.01 44.46Q12.04 45.45 12.01 46.51Q11.99 46.97 12.2 47.26Q12.42 47.57 12.89 47.7Q13.34 47.83 14.26 48.11Q15.47 48.49 16.09 48.65Q16.12 48.66 16.16 48.68Q16.32 48.76 16.38 49.02Q16.95 51.38 17.76 54.15Q17.79 54.26 17.76 54.35Q17.74 54.39 17.71 54.42Q17.36 54.78 16.68 55.51Q15.85 56.41 15.42 56.84Q15.05 57.21 15 57.62Q14.96 58.03 15.24 58.47Q15.81 59.38 16.21 60.13Q16.4 60.5 16.71 60.66Q17.07 60.83 17.57 60.7L19.04 60.35L19.21 60.31L19.39 60.27L20.86 59.91Q20.95 59.89 21.02 59.92Q21.09 59.94 21.14 59.99Q22.96 61.89 25.03 63.87Q25.07 63.92 25.09 63.97Q25.11 64.03 25.09 64.1L24.52 66.52L24.29 67.46Q24.17 67.95 24.34 68.3Q24.49 68.59 24.84 68.77Q25.68 69.21 26.66 69.82Q27.01 70.04 27.34 70.02Q27.72 69.99 28.08 69.64Q28.46 69.28 29.24 68.55Q30.15 67.71 30.59 67.27Q30.6 67.27 30.6 67.26Q30.69 67.19 30.88 67.24Q33.97 68.13 36.06 68.63Q36.19 68.66 36.26 68.75Q36.31 68.8 36.34 68.88Q36.49 69.43 36.82 70.52Q37.14 71.56 37.29 72.08Q37.43 72.57 37.76 72.8Q38.06 73.01 38.52 72.99Q39.02 72.97 39.52 72.97Q39.98 72.97 40.44 72.99Q40.93 73.01 41.25 72.79Q41.58 72.55 41.72 72.05Q41.87 71.5 42.2 70.41Q42.52 69.38 42.66 68.86Q42.67 68.83 42.68 68.81Q42.75 68.68 42.96 68.63Q45.27 68.06 48.2 67.22Q48.29 67.19 48.35 67.23Q48.36 67.24 48.38 67.25Q48.76 67.62 49.54 68.34Q50.45 69.18 50.89 69.61Q51.25 69.96 51.63 70Q52.01 70.04 52.41 69.79Q53.38 69.18 54.12 68.79Q54.5 68.59 54.65 68.28Q54.82 67.93 54.7 67.43Q54.57 66.92 54.33 65.9Q54.06 64.72 53.91 64.13Q53.9 64.1 53.9 64.08Q53.9 63.95 54.03 63.81Q55.89 62.03 57.83 60.02Q57.97 59.88 58.08 59.89Q58.08 59.89 58.09 59.9Q58.68 60.05 59.85 60.32Q60.88 60.56 61.39 60.69Q61.92 60.82 62.29 60.64Q62.61 60.48 62.81 60.1Q63.22 59.29 63.79 58.39Q64.03 58.02 64 57.66Q63.98 57.25 63.6 56.87Q63.18 56.44 62.37 55.56Q61.64 54.78 61.27 54.4Q61.24 54.36 61.22 54.32Q61.2 54.25 61.22 54.18Q62.09 51.17 62.63 48.93Q62.66 48.82 62.73 48.75Q62.79 48.69 62.88 48.66Q63.41 48.51 64.46 48.19Q65.53 47.86 66.07 47.71Q66.56 47.57 66.79 47.25Q67 46.94 66.99 46.47Q66.96 45.84 66.97 45.21Q66.97 44.88 66.99 44.55Q67.01 44.06 66.78 43.74Q66.55 43.41 66.04 43.28Q65.45 43.11 64.27 42.75Q63.29 42.45 62.8 42.31Q62.79 42.31 62.78 42.31Q62.68 42.26 62.64 42.09Q61.99 39.48 61.23 36.85Q61.2 36.74 61.23 36.66Q61.25 36.61 61.29 36.57Q61.69 36.16 62.48 35.31Q63.23 34.5 63.61 34.1Q63.98 33.72 64.01 33.32Q64.03 32.98 63.81 32.63Q63.22 31.7 62.79 30.87Q62.59 30.5 62.29 30.35Q61.93 30.17 61.42 30.29L60.38 30.55L58.07 31.1Q58.06 31.1 58.05 31.1Q57.95 31.11 57.85 31Q55.82 28.9 54.01 27.16Q53.94 27.09 53.91 27.01Q53.89 26.93 53.91 26.84Q54.11 26.04 54.49 24.41Q54.67 23.64 54.76 23.24L54.35 23.15L54.66 22.76Q54.66 22.76 54.63 22.72ZM54.14 23.4C53.87 24.56 53.63 25.63 53.36 26.7C53.27 27.06 53.32 27.29 53.62 27.57C54.92 28.82 56.19 30.1 57.44 31.4C57.68 31.65 57.88 31.73 58.2 31.65C59.32 31.38 60.44 31.12 61.56 30.85C61.89 30.77 62.11 30.8 62.28 31.14C62.6 31.75 62.95 32.35 63.32 32.94C63.52 33.25 63.45 33.46 63.2 33.71C62.42 34.52 61.66 35.36 60.88 36.18C60.63 36.43 60.58 36.64 60.68 37.01C61.18 38.74 61.65 40.48 62.08 42.22C62.17 42.58 62.3 42.76 62.64 42.86C63.73 43.17 64.8 43.53 65.89 43.83C66.29 43.93 66.43 44.12 66.42 44.53C66.39 45.18 66.39 45.84 66.42 46.49C66.43 46.88 66.28 47.06 65.92 47.16C64.85 47.46 63.8 47.81 62.73 48.11C62.35 48.22 62.18 48.37 62.07 48.8C61.65 50.55 61.18 52.29 60.68 54.02C60.58 54.36 60.63 54.56 60.86 54.79C61.65 55.61 62.4 56.45 63.19 57.27C63.45 57.53 63.52 57.75 63.31 58.09C62.95 58.66 62.61 59.24 62.3 59.83C62.11 60.19 61.88 60.23 61.53 60.14C60.43 59.86 59.33 59.62 58.23 59.34C57.88 59.25 57.68 59.36 57.42 59.62C56.18 60.9 54.93 62.17 53.64 63.4C53.36 63.68 53.26 63.89 53.35 64.27C53.63 65.36 53.87 66.47 54.15 67.56C54.23 67.89 54.19 68.11 53.86 68.29C53.26 68.6 52.68 68.95 52.11 69.3C51.79 69.5 51.56 69.48 51.29 69.21C50.46 68.4 49.6 67.64 48.77 66.84C48.54 66.62 48.36 66.58 48.04 66.67C46.31 67.17 44.57 67.64 42.83 68.07C42.42 68.17 42.22 68.31 42.11 68.7C41.82 69.77 41.46 70.83 41.17 71.9C41.06 72.3 40.87 72.44 40.46 72.42C39.81 72.39 39.15 72.39 38.5 72.42C38.11 72.44 37.94 72.29 37.84 71.92C37.53 70.85 37.19 69.8 36.88 68.73C36.78 68.35 36.61 68.18 36.19 68.08C34.46 67.66 32.74 67.19 31.03 66.7C30.69 66.6 30.46 66.6 30.19 66.86C29.37 67.67 28.51 68.43 27.68 69.23C27.45 69.46 27.26 69.52 26.96 69.34C26.36 68.96 25.74 68.6 25.11 68.27C24.79 68.1 24.77 67.9 24.84 67.59C25.12 66.48 25.37 65.35 25.65 64.24C25.72 63.92 25.68 63.71 25.42 63.46C24.11 62.2 22.82 60.91 21.55 59.6C21.28 59.32 21.06 59.28 20.73 59.36C19.63 59.63 18.53 59.88 17.43 60.15C17.1 60.23 16.89 60.2 16.71 59.86C16.41 59.28 16.07 58.72 15.72 58.17C15.5 57.81 15.51 57.56 15.82 57.24C16.61 56.46 17.34 55.62 18.11 54.82C18.36 54.56 18.41 54.35 18.31 53.99C17.82 52.3 17.35 50.6 16.93 48.89C16.83 48.45 16.69 48.22 16.23 48.1C15.16 47.82 14.11 47.45 13.04 47.15C12.7 47.05 12.57 46.88 12.58 46.53C12.6 45.83 12.6 45.14 12.58 44.44C12.57 44.1 12.71 43.95 13.02 43.86C14.12 43.54 15.22 43.19 16.32 42.88C16.66 42.78 16.81 42.63 16.9 42.26C17.34 40.49 17.81 38.73 18.32 36.98C18.42 36.64 18.36 36.44 18.13 36.2C17.36 35.4 16.62 34.57 15.84 33.77C15.55 33.48 15.46 33.23 15.7 32.86C16.06 32.31 16.39 31.74 16.69 31.16C16.88 30.8 17.11 30.77 17.46 30.86C18.54 31.13 19.62 31.36 20.7 31.63C21.06 31.72 21.29 31.67 21.57 31.38C22.82 30.08 24.1 28.81 25.4 27.55C25.65 27.31 25.73 27.11 25.65 26.79C25.37 25.67 25.12 24.55 24.85 23.43C24.77 23.1 24.8 22.89 25.14 22.71C25.75 22.39 26.35 22.04 26.94 21.67C27.26 21.47 27.46 21.55 27.71 21.79C28.52 22.57 29.36 23.33 30.18 24.12C30.43 24.36 30.64 24.42 31.01 24.31C32.7 23.82 34.4 23.35 36.11 22.94C36.55 22.83 36.78 22.69 36.9 22.24C37.18 21.18 37.54 20.15 37.83 19.1C37.94 18.7 38.12 18.56 38.53 18.58C39.18 18.6 39.84 18.6 40.49 18.58C40.88 18.56 41.05 18.71 41.16 19.07C41.46 20.14 41.81 21.2 42.11 22.26C42.22 22.64 42.38 22.82 42.8 22.92C44.55 23.34 46.29 23.82 48.02 24.32C48.36 24.41 48.56 24.37 48.8 24.13C49.61 23.35 50.46 22.6 51.26 21.8C51.56 21.51 51.8 21.49 52.14 21.71C52.66 22.03 53.2 22.33 53.73 22.65C53.8 22.69 53.86 22.73 53.93 22.77C54.06 22.86 54.15 23.03 54.21 23.11L54.21 23.12L54.21 23.11C54.21 23.12 54.21 23.12 54.21 23.12C54.18 23.21 54.16 23.31 54.14 23.4Z" fill="#FFFFFF" fill-opacity="1.000000" fill-rule="evenodd"/>
		<circle id="Ellipse 28" cx="39.500000" cy="45.500000" r="12.500000" stroke="#FFFFFF" stroke-opacity="1.000000" stroke-width="2.000000"/>
		<circle id="Ellipse 29" cx="39.500000" cy="45.500000" r="8.500000" stroke="#FFFFFF" stroke-opacity="1.000000" stroke-width="2.000000"/>
		<path id="Vector 31" d="M38.5 16.5L43.48 11.27C43.85 10.88 44.46 10.86 44.86 11.21L46.82 12.93C47.12 13.19 47.54 13.26 47.9 13.09L51.08 11.64C51.43 11.48 51.66 11.12 51.66 10.73L51.66 8C51.66 7.44 52.11 7 52.66 7L59.37 7C59.92 7 60.37 7.44 60.37 8L60.37 10.73C60.37 11.12 60.6 11.48 60.95 11.64L64.13 13.09C64.49 13.26 64.91 13.19 65.21 12.93L67.18 11.2C67.58 10.85 68.18 10.87 68.55 11.24L73.08 15.8C73.49 16.2 73.47 16.87 73.04 17.25L70.86 19.2C70.51 19.51 70.42 20.02 70.64 20.43L72.36 23.58C72.53 23.91 72.87 24.11 73.24 24.11L76 24.11C76.55 24.11 77 24.56 77 25.11L77 31.77C77 32.35 76.49 32.82 75.9 32.76L73.32 32.53C72.91 32.49 72.52 32.71 72.34 33.08L70.63 36.51C70.42 36.93 70.53 37.45 70.91 37.74L72.94 39.33C73.41 39.7 73.46 40.4 73.03 40.82L67.89 46" stroke="#FFFFFF" stroke-opacity="1.000000" stroke-width="2.200000"/>
	</g>
</svg>
