<svg width="17.846392" height="17.000000" viewBox="0 0 17.8464 17" fill="none" xmlns="http://www.w3.org/2000/svg" xmlns:xlink="http://www.w3.org/1999/xlink">
	<desc>
			Created with Pixso.
	</desc>
	<defs/>
	<path id="Vector" d="M12.75 10.69L11.94 10.69L11.66 10.42C12.66 9.32 13.26 7.88 13.26 6.31C13.26 2.82 10.29 0 6.63 0C2.96 0 0 2.82 0 6.31C0 9.8 2.96 12.63 6.63 12.63C8.27 12.63 9.78 12.06 10.94 11.1L11.22 11.38L11.22 12.14L16.32 17L17.84 15.55L12.75 10.69ZM6.63 10.69C4.09 10.69 2.04 8.73 2.04 6.31C2.04 3.89 4.09 1.94 6.63 1.94C9.17 1.94 11.22 3.89 11.22 6.31C11.22 8.73 9.17 10.69 6.63 10.69Z" fill="#4E5861" fill-opacity="1.000000" fill-rule="evenodd"/>
</svg>
