<svg width="40.000000" height="40.000000" viewBox="0 0 40 40" fill="none" xmlns="http://www.w3.org/2000/svg" xmlns:xlink="http://www.w3.org/1999/xlink">
	<desc>
			Created with Pixso.
	</desc>
	<defs/>
	<rect id="Icon / Cart" rx="0.000000" width="38.426945" height="38.426945" transform="translate(0.786529 0.786529)" fill="#FFFFFF" fill-opacity="0"/>
	<path id="Vector" d="M1.66 4.16L4.54 4.16C5.3 4.16 5.67 4.16 5.98 4.3C6.25 4.42 6.48 4.61 6.64 4.86C6.83 5.14 6.9 5.51 7.02 6.25L7.68 10L9.2 18.73C9.48 20.35 9.62 21.16 10.04 21.75C10.4 22.26 10.92 22.65 11.51 22.87C12.18 23.12 13 23.04 14.64 22.88L31.28 21.27C32.89 21.11 33.69 21.04 34.3 20.67C34.83 20.35 35.26 19.88 35.53 19.32C35.83 18.68 35.83 17.87 35.83 16.26L35.83 15.72C35.83 14 35.83 13.14 35.5 12.48C35.21 11.9 34.74 11.42 34.17 11.11C33.52 10.76 32.66 10.73 30.94 10.68L7.68 10" stroke="#FFFFFF" stroke-opacity="1.000000" stroke-width="2.831503" stroke-linejoin="round" stroke-linecap="round"/>
	<circle id="Ellipse" cx="14.166748" cy="31.666504" r="3.333333" stroke="#FFFFFF" stroke-opacity="1.000000" stroke-width="2.831503"/>
	<circle id="Ellipse" cx="30.000122" cy="31.666504" r="3.333333" stroke="#FFFFFF" stroke-opacity="1.000000" stroke-width="2.831503"/>
</svg>
