<svg width="40.000000" height="40.000000" viewBox="0 0 40 40" fill="none" xmlns="http://www.w3.org/2000/svg" xmlns:xlink="http://www.w3.org/1999/xlink">
	<desc>
			Created with Pixso.
	</desc>
	<defs>
		<clipPath id="clip47_204">
			<rect id="л" rx="0.000000" width="33.000000" height="33.000000" transform="translate(3.500000 3.500000)" fill="white" fill-opacity="0"/>
		</clipPath>
		<clipPath id="clip47_211">
			<rect id="Frame 1000002142" rx="0.000000" width="39.000000" height="39.000000" transform="translate(0.500000 0.500000)" fill="white" fill-opacity="0"/>
		</clipPath>
	</defs>
	<g clip-path="url(#clip47_211)">
		<rect id="л" rx="0.000000" width="33.000000" height="33.000000" transform="translate(3.500000 3.500000)" fill="#FFFFFF" fill-opacity="0"/>
		<g clip-path="url(#clip47_204)">
			<path id="Vector" d="M19.97 35.24C16.74 35.24 13.52 35.23 10.29 35.24C8.85 35.24 7.68 34.71 6.84 33.51C6.21 32.62 6.09 31.61 6.19 30.57C6.45 27.97 7.53 25.79 9.51 24.09C11.18 22.66 13.11 21.85 15.31 21.81C18.46 21.77 21.63 21.75 24.78 21.83C27.36 21.9 29.53 23.01 31.27 24.91C32.96 26.77 33.78 28.97 33.75 31.49C33.73 33.4 32.12 35.11 30.21 35.2C29.01 35.26 27.8 35.23 26.6 35.23C24.39 35.24 22.18 35.24 19.97 35.24L19.97 35.24ZM19.97 33.09C23.25 33.09 26.53 33.09 29.81 33.09C30.88 33.09 31.66 32.31 31.62 31.24C31.61 30.78 31.57 30.31 31.47 29.86C30.7 26.31 27.76 23.94 24.12 23.93C21.35 23.93 18.57 23.93 15.8 23.93C15.38 23.93 14.96 23.95 14.55 24.02C11.03 24.59 8.45 27.54 8.3 31.09C8.24 32.34 9.16 33.12 10.23 33.1C13.47 33.07 16.72 33.09 19.97 33.09L19.97 33.09Z" fill="#FFFFFF" fill-opacity="1.000000" fill-rule="nonzero"/>
			<path id="Vector" d="M19.97 21.09C15.47 21.09 11.81 17.43 11.82 12.94C11.83 8.46 15.49 4.82 19.97 4.82C24.46 4.82 28.12 8.48 28.11 12.97C28.1 17.45 24.45 21.09 19.97 21.09ZM13.97 12.92C13.94 16.22 16.63 18.94 19.93 18.97C23.24 18.99 25.93 16.32 25.96 12.99C26 9.72 23.33 6.99 20.1 6.96C16.69 6.93 14 9.55 13.97 12.92Z" fill="#FFFFFF" fill-opacity="1.000000" fill-rule="nonzero"/>
		</g>
	</g>
</svg>
