<svg width="24.000000" height="24.000000" viewBox="0 0 24 24" fill="none" xmlns="http://www.w3.org/2000/svg" xmlns:xlink="http://www.w3.org/1999/xlink">
	<desc>
			Created with Pixso.
	</desc>
	<defs>
		<clipPath id="clip200_94">
			<rect id="material-symbols-light:mail-outline" rx="0.000000" width="23.000000" height="23.000000" transform="translate(0.500000 0.500000)" fill="white" fill-opacity="0"/>
		</clipPath>
	</defs>
	<rect id="material-symbols-light:mail-outline" rx="0.000000" width="23.000000" height="23.000000" transform="translate(0.500000 0.500000)" fill="#FFFFFF" fill-opacity="0"/>
	<g clip-path="url(#clip200_94)">
		<path id="Vector" d="M4.61 19C4.15 19 3.77 18.84 3.46 18.53C3.15 18.23 3 17.84 3 17.38L3 6.61C3 6.15 3.15 5.77 3.46 5.46C3.77 5.15 4.15 5 4.61 5L19.38 5C19.84 5 20.22 5.15 20.53 5.46C20.84 5.77 20.99 6.15 21 6.61L21 17.38C21 17.84 20.84 18.22 20.53 18.53C20.22 18.84 19.84 19 19.38 19L4.61 19ZM12 12.11L4 6.88L4 17.38C4 17.56 4.05 17.71 4.17 17.82C4.28 17.94 4.43 18 4.61 18L19.38 18C19.56 18 19.71 17.94 19.82 17.82C19.94 17.71 20 17.56 20 17.38L20 6.88L12 12.11ZM12 11L19.69 6L4.3 6L12 11ZM4 6.88L4 6L4 17.38C4 17.56 4.05 17.71 4.17 17.82C4.28 17.94 4.43 18 4.61 18L4 18L4 6.88Z" fill="#FFFFFF" fill-opacity="1.000000" fill-rule="nonzero"/>
		<path id="Vector" d="M2.88 18.24Q3.02 18.52 3.25 18.75Q3.48 18.98 3.75 19.11Q4.14 19.29 4.61 19.29L19.38 19.29Q19.85 19.3 20.23 19.12Q20.51 18.98 20.74 18.75Q20.98 18.51 21.11 18.23Q21.3 17.85 21.3 17.38L21.3 6.61Q21.29 6.14 21.11 5.76Q20.98 5.48 20.74 5.25Q20.51 5.01 20.23 4.88Q19.85 4.7 19.38 4.7L4.61 4.7Q4.14 4.7 3.76 4.88Q3.48 5.01 3.25 5.25Q3.01 5.48 2.88 5.76Q2.69 6.14 2.69 6.61L2.69 17.38Q2.7 17.85 2.88 18.24ZM3.87 18.83Q3.65 18.72 3.46 18.53Q3.27 18.35 3.16 18.12Q3 17.79 3 17.38L3 6.61Q3 6.2 3.16 5.87Q3.27 5.65 3.46 5.46Q3.65 5.27 3.88 5.16Q4.2 5 4.61 5L19.38 5C19.84 5 20.22 5.15 20.53 5.46C20.84 5.77 20.99 6.15 21 6.61L21 17.38Q21 17.79 20.83 18.11Q20.72 18.34 20.53 18.53C20.22 18.84 19.84 19 19.38 19L4.61 19Q4.2 19 3.87 18.83ZM12 12.11L4.3 7.08L4 6.88L4 17.38C4 17.5 4.02 17.6 4.07 17.7C4.1 17.74 4.13 17.78 4.17 17.82Q4.23 17.88 4.29 17.92L4.3 17.92Q4.43 18 4.61 18L19.38 18Q19.56 18 19.69 17.92Q19.76 17.88 19.82 17.82C19.94 17.71 20 17.56 20 17.38L20 6.88L19.7 7.08L12 12.11ZM19.7 7.43L12 12.47L4.3 7.43L4.3 17.38Q4.3 17.5 4.35 17.57Q4.36 17.59 4.38 17.61Q4.4 17.63 4.41 17.64Q4.49 17.7 4.61 17.7L19.38 17.7Q19.5 17.7 19.57 17.64Q19.59 17.63 19.61 17.61Q19.63 17.59 19.64 17.58Q19.7 17.5 19.7 17.38L19.7 7.43ZM19.69 6L19.23 6.29L12 11L4.3 6L19.69 6ZM18.68 6.29L5.31 6.29L12 10.64L18.68 6.29Z" fill="#FFFFFF" fill-opacity="1.000000" fill-rule="evenodd"/>
	</g>
</svg>
