<svg width="20.000000" height="20.000000" viewBox="0 0 20 20" fill="none" xmlns="http://www.w3.org/2000/svg" xmlns:xlink="http://www.w3.org/1999/xlink">
	<desc>
			Created with Pixso.
	</desc>
	<defs>
		<clipPath id="clip200_83">
			<rect id="_РЎР»РѕР№_1" rx="0.000000" width="19.000000" height="19.000000" transform="translate(0.500000 0.500000)" fill="white" fill-opacity="0"/>
		</clipPath>
	</defs>
	<rect id="_РЎР»РѕР№_1" rx="0.000000" width="19.000000" height="19.000000" transform="translate(0.500000 0.500000)" fill="#FFFFFF" fill-opacity="0"/>
	<g clip-path="url(#clip200_83)">
		<path id="Vector" d="M20 2.8C19.88 3.27 19.76 3.74 19.64 4.21C18.74 8.05 17.84 11.89 16.94 15.72C16.79 16.36 16.63 16.99 16.49 17.63C16.25 18.65 15.25 19 14.44 18.34C13.27 17.39 12.1 16.43 10.93 15.46C10.81 15.36 10.73 15.34 10.58 15.45C9.57 16.22 8.55 16.98 7.53 17.74C7.47 17.78 7.42 17.82 7.36 17.86C6.96 18.1 6.56 17.96 6.44 17.52C6.31 17.06 6.22 16.59 6.12 16.12C5.79 14.59 5.46 13.05 5.13 11.52C5.11 11.4 5.05 11.33 4.93 11.27C3.55 10.68 2.18 10.08 0.8 9.47C0.12 9.16 -0.16 8.45 0.16 7.81C0.32 7.47 0.6 7.28 0.95 7.16C5.09 5.8 9.22 4.44 13.36 3.07C14.96 2.55 16.56 2.04 18.15 1.48C19.03 1.17 19.76 1.49 20 2.33L20 2.8L20 2.8ZM15.3 17.52C16.48 12.51 17.65 7.53 18.83 2.52C12.93 4.46 7.08 6.39 1.19 8.33C1.27 8.38 1.3 8.4 1.34 8.42C2.71 9.02 4.07 9.61 5.44 10.21C5.56 10.27 5.64 10.24 5.74 10.18C7.65 9.12 9.56 8.06 11.47 7C12.5 6.43 13.52 5.86 14.55 5.28C14.8 5.14 15.05 5.09 15.29 5.28C15.61 5.52 15.6 5.91 15.28 6.24C13.32 8.3 11.35 10.35 9.38 12.41C9.34 12.46 9.3 12.5 9.24 12.56C11.26 14.21 13.27 15.86 15.3 17.52L15.3 17.52ZM7.07 14.93C7.11 14.85 7.12 14.82 7.13 14.78C7.34 14.07 7.55 13.36 7.75 12.64C7.81 12.42 7.91 12.24 8.07 12.07C9.25 10.85 10.42 9.62 11.59 8.39C11.64 8.34 11.68 8.29 11.72 8.24L11.7 8.22C9.89 9.22 8.09 10.23 6.28 11.23C6.54 12.45 6.8 13.67 7.07 14.93ZM8.05 15.87C8.66 15.42 9.23 14.99 9.81 14.56C9.43 14.25 9.07 13.95 8.69 13.64C8.48 14.38 8.27 15.1 8.05 15.87L8.05 15.87Z" fill="#FFFFFF" fill-opacity="1.000000" fill-rule="nonzero"/>
	</g>
</svg>
