<svg width="20.000000" height="20.000000" viewBox="0 0 20 20" fill="none" xmlns="http://www.w3.org/2000/svg" xmlns:xlink="http://www.w3.org/1999/xlink">
	<desc>
			Created with Pixso.
	</desc>
	<defs>
		<clipPath id="clip200_87">
			<rect id="_РЎР»РѕР№_1" rx="0.000000" width="19.000000" height="19.000000" transform="translate(0.500000 0.500000)" fill="white" fill-opacity="0"/>
		</clipPath>
	</defs>
	<rect id="_РЎР»РѕР№_1" rx="0.000000" width="19.000000" height="19.000000" transform="translate(0.500000 0.500000)" fill="#FFFFFF" fill-opacity="0"/>
	<g clip-path="url(#clip200_87)">
		<path id="Vector" d="M9.27 0C9.75 0 10.24 0 10.72 0C10.77 0.01 10.83 0.02 10.89 0.03C11.22 0.08 11.56 0.1 11.89 0.17C14.38 0.66 16.4 1.93 17.95 3.94C19 5.3 19.65 6.83 19.88 8.53C19.93 8.87 19.96 9.21 20 9.55L20 10.21C19.98 10.29 19.97 10.36 19.96 10.44C19.89 10.94 19.86 11.44 19.76 11.94C18.91 16.15 15.13 19.45 10.82 19.76C9.01 19.88 7.29 19.57 5.66 18.79C5.57 18.75 5.46 18.74 5.36 18.76C4.08 19.04 2.8 19.34 1.52 19.63C1.04 19.74 0.57 19.85 0.07 19.96C0.08 19.88 0.08 19.83 0.09 19.78C0.46 18.1 0.84 16.41 1.2 14.72C1.22 14.62 1.21 14.5 1.16 14.41C0.04 12.23 -0.25 9.95 0.31 7.56C1.18 3.83 4.46 0.76 8.22 0.15C8.57 0.09 8.92 0.05 9.27 0ZM2.12 17.88C3.3 17.62 4.45 17.35 5.59 17.1C5.69 17.08 5.81 17.1 5.9 17.15C8.11 18.34 10.41 18.54 12.8 17.74C16.77 16.4 19.13 12.19 18.21 8.1C17.18 3.52 12.51 0.64 7.95 1.82C5.31 2.5 3.41 4.11 2.29 6.6C1.65 8 1.46 9.48 1.68 11.01C1.84 12.13 2.24 13.18 2.81 14.15C2.86 14.24 2.89 14.37 2.87 14.46C2.7 15.25 2.53 16.03 2.35 16.81C2.28 17.16 2.2 17.5 2.12 17.88Z" fill="#FFFFFF" fill-opacity="1.000000" fill-rule="nonzero"/>
		<path id="Vector" d="M5.43 7.67C5.44 6.9 5.75 6.27 6.3 5.75C6.46 5.61 6.64 5.52 6.86 5.53C6.96 5.53 7.06 5.54 7.15 5.52C7.5 5.48 7.7 5.65 7.83 5.96C8.06 6.53 8.3 7.09 8.52 7.66C8.56 7.77 8.56 7.94 8.5 8.03C8.35 8.28 8.17 8.51 7.98 8.72C7.75 8.99 7.74 9.04 7.91 9.33C8.65 10.54 9.66 11.43 10.97 11.96C11.21 12.06 11.32 12.04 11.48 11.84C11.71 11.57 11.94 11.29 12.16 11.01C12.32 10.81 12.41 10.76 12.64 10.87C13.29 11.16 13.93 11.47 14.57 11.8C14.65 11.84 14.72 11.99 14.72 12.08C14.71 12.7 14.54 13.23 14 13.62C13.28 14.13 12.52 14.18 11.69 13.97C9.45 13.43 7.78 12.1 6.49 10.23C6.08 9.64 5.68 9.04 5.52 8.32C5.48 8.11 5.46 7.89 5.43 7.67L5.43 7.67Z" fill="#FFFFFF" fill-opacity="1.000000" fill-rule="nonzero"/>
	</g>
</svg>
